<?xml version="1.0" encoding="utf-8"?>
<!-- Generator: Adobe Illustrator 27.5.0, SVG Export Plug-In . SVG Version: 6.00 Build 0)  -->
<svg version="1.1" xmlns="http://www.w3.org/2000/svg" xmlns:xlink="http://www.w3.org/1999/xlink" x="0px" y="0px"
	 viewBox="0 0 750 500" style="enable-background:new 0 0 750 500;" xml:space="preserve">
<g id="BACKGROUND">
	<linearGradient id="SVGID_1_" gradientUnits="userSpaceOnUse" x1="375" y1="306.313" x2="375" y2="5.0835">
		<stop  offset="0" style="stop-color:#FFCA7E"/>
		<stop  offset="0.1608" style="stop-color:#FFC886"/>
		<stop  offset="0.4163" style="stop-color:#FFC49D"/>
		<stop  offset="0.4678" style="stop-color:#FFC3A3"/>
		<stop  offset="0.4876" style="stop-color:#F9C2A5"/>
		<stop  offset="0.7356" style="stop-color:#ACB4C2"/>
		<stop  offset="0.9124" style="stop-color:#7CABD4"/>
		<stop  offset="1" style="stop-color:#69A8DB"/>
	</linearGradient>
	<polygon style="fill:url(#SVGID_1_);" points="0,500 750,500 750,0 0,0 	"/>
</g>
<g id="OBJECTS">
	<g id="XMLID_5_" style="opacity:0.43;">
	</g>
	<g>
		<defs>
			
				<rect id="SVGID_00000137839830491484081980000015339077878742124974_" transform="matrix(-1 -1.224647e-16 1.224647e-16 -1 750 500)" width="750" height="500"/>
		</defs>
		<clipPath id="SVGID_00000013883325904035352430000014546659706234194867_">
			<use xlink:href="#SVGID_00000137839830491484081980000015339077878742124974_"  style="overflow:visible;"/>
		</clipPath>
		
			<linearGradient id="SVGID_00000094613823423114118260000001673551397350382751_" gradientUnits="userSpaceOnUse" x1="78.2314" y1="211.3155" x2="78.2314" y2="157.03">
			<stop  offset="0" style="stop-color:#D9F1F8;stop-opacity:0"/>
			<stop  offset="0.1236" style="stop-color:#E6F6FA;stop-opacity:0.1236"/>
			<stop  offset="0.3328" style="stop-color:#F4FBFD;stop-opacity:0.3328"/>
			<stop  offset="0.586" style="stop-color:#FCFEFF;stop-opacity:0.586"/>
			<stop  offset="1" style="stop-color:#FFFFFF"/>
		</linearGradient>
		
			<path style="opacity:0.54;clip-path:url(#SVGID_00000013883325904035352430000014546659706234194867_);fill:url(#SVGID_00000094613823423114118260000001673551397350382751_);" d="
			M182.959,211.316c-0.109-0.298-0.215-0.597-0.337-0.889c-1.892-4.52-5.163-8.31-9.078-11.293c0.138-1.661,0.005-3.349-0.394-4.969
			c-0.401-1.602-1.069-3.128-2.007-4.492c-3.664-5.323-11.137-7.626-17.168-5.313c2.425-7.552-3.539-16.557-11.431-17.278
			c-7.638-0.696-14.882,6.558-14.426,14.156c-0.373-3.475-3.217-6.131-6.088-8.181c-6.722-4.802-12.402-0.43-13.712,0.094
			c-1.929-9.336-10.74-16.484-23.658-16.107c-12.908,0.37-21.106,8.93-21.708,17.42c-3.082-4.391-9.77-5.745-14.319-2.897
			c-4.534,2.858-6.236,9.466-3.612,14.15c-7.677-7.29-19.626-9.701-29.525-5.96c-9.908,3.739-17.274,13.454-18.209,24
			c-6.164-1.893-17.575,0.145-23.783,7.558H182.959z"/>
		
			<linearGradient id="SVGID_00000114063286656836636350000004386496172200008633_" gradientUnits="userSpaceOnUse" x1="269.1547" y1="80.5862" x2="269.1547" y2="43.6501">
			<stop  offset="0" style="stop-color:#D9F1F8;stop-opacity:0"/>
			<stop  offset="0.1236" style="stop-color:#E6F6FA;stop-opacity:0.1236"/>
			<stop  offset="0.3328" style="stop-color:#F4FBFD;stop-opacity:0.3328"/>
			<stop  offset="0.586" style="stop-color:#FCFEFF;stop-opacity:0.586"/>
			<stop  offset="1" style="stop-color:#FFFFFF"/>
		</linearGradient>
		
			<path style="opacity:0.54;clip-path:url(#SVGID_00000013883325904035352430000014546659706234194867_);fill:url(#SVGID_00000114063286656836636350000004386496172200008633_);" d="
			M367.445,80.586c-3.042-1.749-6.388-3.249-9.693-3.861c-5.554-1.028-11.523,0.441-11.523,0.441
			c-3.983-3.556-18.22-6.692-27.701,0.076c-2.534-7.095-12.691-9.954-18.502-5.206c2.034-9.995-5.637-20.913-15.678-22.314
			c-10.047-1.395-20.338,7.014-21.053,17.194c0.407-6.055-7.333-10.889-12.534-7.827c-0.918-8.821-9.582-16.084-18.368-15.393
			c-8.774,0.703-16.178,9.245-15.678,18.101c-2.917-5.195-10.041-7.49-15.405-4.98c-0.558,0.262-1.081,0.569-1.581,0.918
			c-1.214,0.854-2.249,1.947-3.062,3.196c-6.729-1.987-17.956-0.273-21.03,9.181c-0.616,1.883-0.796,3.748-0.663,5.439
			c0.058,0.72,0.174,1.406,0.343,2.051c-1.737-0.006-3.44,1.127-4.306,2.673c-0.056,0.101-0.099,0.208-0.149,0.311H367.445z"/>
		<g style="opacity:0.54;clip-path:url(#SVGID_00000013883325904035352430000014546659706234194867_);">
			
				<linearGradient id="SVGID_00000010995013538080232170000009032873540640480437_" gradientUnits="userSpaceOnUse" x1="541.5509" y1="155.204" x2="541.5509" y2="100.2109">
				<stop  offset="0" style="stop-color:#D9F1F8;stop-opacity:0"/>
				<stop  offset="0.1236" style="stop-color:#E6F6FA;stop-opacity:0.1236"/>
				<stop  offset="0.3328" style="stop-color:#F4FBFD;stop-opacity:0.3328"/>
				<stop  offset="0.586" style="stop-color:#FCFEFF;stop-opacity:0.586"/>
				<stop  offset="1" style="stop-color:#FFFFFF"/>
			</linearGradient>
			<path style="fill:url(#SVGID_00000010995013538080232170000009032873540640480437_);" d="M698.232,155.204
				c-3.579-11.687-14.028-20.54-26.962-21.442c-4.726-0.33-9.289,0.446-13.419,2.094c-2.879-4.745-9.008-11.689-20.954-13.821
				c-1.365-0.252-2.81-0.388-4.312-0.409c-3.112-11.579-13.277-20.463-25.911-21.344c-13.197-0.92-24.932,7.182-29.197,19.04
				c-1.713-0.961-3.695-1.676-5.956-2.002c-2.191-0.309-4.075-0.188-5.688,0.18c-1.931-3.164-4.917-5.693-8.459-6.794
				c-4.933-1.498-10.523-0.133-14.456,3.164c-2.815-7.218-9.597-12.548-17.841-13.123c-9.919-0.692-18.686,5.73-21.323,14.924
				c-8.694-3.6-15.408-0.245-19.301,3.511c-4.963,4.788-7.545,14.743-5.363,21.207c-6.251-1.734-11.252,2.221-10.135,8.623
				c-14.033-8.24-27.385-1.429-34.658,4.075c-0.099-0.139-0.209-0.279-0.32-0.419c-7.031-6.018-16.211-2.324-17.557,2.475
				c-10.515-4.197-20.943-3.887-31.551,0.06H698.232z"/>
		</g>
		
			<linearGradient id="SVGID_00000154402353080189489220000005513715137255298463_" gradientUnits="userSpaceOnUse" x1="356.9895" y1="113.138" x2="390.6514" y2="342.6505" gradientTransform="matrix(-1 0 0 1 746.3579 0)">
			<stop  offset="0.4362" style="stop-color:#B3AF9E"/>
			<stop  offset="1" style="stop-color:#3460A5"/>
		</linearGradient>
		
			<path style="clip-path:url(#SVGID_00000013883325904035352430000014546659706234194867_);fill:url(#SVGID_00000154402353080189489220000005513715137255298463_);" d="
			M742.317,365.963c-18.057-9.916-31.423-27.18-50.397-35.494c-9.168-4.018-23.125-10.343-33.125-10.847
			c-16.475-0.829-16.941,4.433-32.724-4.092c-9.895-5.344-19.035-11.909-28.791-17.491c-7.164-4.099-17.513-6.762-23.717-11.283
			c-6.789-4.947-12.315-19.754-21.769-21.47c-8.515-1.546-17.443,10.016-26.368,10.929c-20.866,2.135-24.262,2.548-37.28-9.761
			c-13.602-12.861-23.872-31.279-37.522-33.288c-6.708-0.987-14.371-7.091-19.535-10.693c-9.174-6.399-12.598-7.759-21.89-4.535
			c-7.82,2.713-14.178,11.377-22.588,13.814c-17.806,5.16-39.909,2.267-57.15,10.396c-15.685,7.396-22.847,28.75-41.444,31.394
			c-8.499,1.208-18.681-6.81-27.632-7.209c-12.128-0.541-15.52,3.393-26.902-1.203c-17.541-7.083-34.257-19.233-50.58-28.324
			c-8.428-4.694-11.768-9.628-18.941-16.485c-10.728-10.256-11.048-8.989-23.247-3.929c-13.285,5.51-13.933,8.506-27.766,3.245
			c-10.433-3.968-16.04-7.921-23.358-15.642c-12.215-12.887-12.644-9.41-29.032-14.908c-7.074-2.374-11.881-6.386-17.763-11.26
			c-5.594-4.635-16.763-17.239-25.382-16.734c-5.894,0.346-16.018,10.77-22.629,13.707c-8.998,3.997-19.857,4.723-30.588,5.807
			v206.239c0.438,0.375,0.876,0.75,1.313,1.125c11.766,10.079,26.842,29.263,41.305,35.383c20.429,8.643,59.354-0.238,82.016-1.085
			c113.34-4.237,226.95-15.224,340.254-17.303c110.339-2.025,221.402,3.88,331.819,6.375v-39.479
			C753.725,369.795,746.165,368.076,742.317,365.963z"/>
		
			<linearGradient id="SVGID_00000066473706845939974540000004886309559134108577_" gradientUnits="userSpaceOnUse" x1="449.8738" y1="123.1238" x2="522.3446" y2="346.6782">
			<stop  offset="0" style="stop-color:#B3AF9E"/>
			<stop  offset="1" style="stop-color:#3460A5"/>
		</linearGradient>
		
			<path style="clip-path:url(#SVGID_00000013883325904035352430000014546659706234194867_);fill:url(#SVGID_00000066473706845939974540000004886309559134108577_);" d="
			M789.079,506.255V183.626c-1.523-0.865-3.169-1.486-4.985-1.757c-12.23-1.823-9.448,5.941-21.73-4.402
			c-6.08-5.12-11.717-11.485-18.466-15.626c-12.077-7.411-12.053-3.937-22.552,2.611c-14.061,8.77-29.267,19.634-44.516,25.943
			c-16.881,6.984-32.117,4.169-45.837,17.964c-6.262,6.296-9.678,11.972-16.958,16.43c-5.697,3.489-12.828,5.761-18.803,9.282
			c-13.411,7.902-30.927,24.159-46.713,26.309c-10.706,1.458-13.429-4.218-22.525,1.083c-9.218,5.371-17.072,17.623-24.831,24.999
			c-12.614,11.992-27.145,21.119-41.476,31.085c-31.306,21.771-63.376,36.557-97.987,52.9
			c-14.736,6.958-40.558,13.445-52.471,24.776c-7.472,7.107-11.792,22.634-16.306,31.924
			c-12.814,26.369-25.627,52.739-38.441,79.108H789.079z"/>
		
			<linearGradient id="SVGID_00000112603438932762076630000004526880859340573061_" gradientUnits="userSpaceOnUse" x1="376.7869" y1="494.2239" x2="374.6837" y2="269.1931" gradientTransform="matrix(1 -0.0027 0.0027 1 -0.6697 0.8047)">
			<stop  offset="0" style="stop-color:#B3AF9E"/>
			<stop  offset="1" style="stop-color:#3468A5"/>
		</linearGradient>
		
			<path style="clip-path:url(#SVGID_00000013883325904035352430000014546659706234194867_);fill:url(#SVGID_00000112603438932762076630000004526880859340573061_);" d="
			M784.247,393.662c-8.415-3.095-16.203-8.328-24.75-11.017c-2.565-0.807-6.391,2.683-8.506,1.772
			c-2.389-1.028-2.322-5.412-4.746-6.758c-12.251-6.802-26.58-14.363-37.084-24.336c-4.776-4.534-8.231-11.806-13.413-15.583
			c-11.26-8.208-11.48-1.606-19.218-1.533c-2.908,0.027-4.911,2.81-8.4,2.789c-0.061,0-8.677-3.607-9.502-4.232
			c-4.146-3.145-6.232-7.104-9.941-11.82c-4.698-5.974-11.391-17.454-17.915-21.292c-1.37-0.806-5.879,3.694-7.949,2.787
			c-2.392-1.048-3.562-4.764-5.931-6.092c-13.599-7.626-24.807-15.027-36.329-25.167c-4.629-4.074-11.125-10.132-16.739-10.369
			c-4.112-0.174-14.304,10.018-17.808,9.184c-3.969-0.945-11.942-6.556-16.074-9.264c-7.168-4.698-12.16-6.769-20.081-10.041
			c-7.188-2.968-14.366-10.119-21.971-10.193c-10.108-0.098-9.533,2.867-17,5.594c-14.259,5.208-20.196,3.126-31.776,15.492
			c-7.875,8.409-21.803,26.828-32.095,31.713c-5.555,2.637-13.288-0.87-19.252,1.012c-5.729,1.807-11.494,8.206-16.943,11.171
			c-8.807,4.792-14.013,5.825-22.069,13.24c-3.381,3.112-10.429,12.801-14.181,14.527c-8.615,3.962-16.534-3.754-22.83-4.225
			c-5.461-0.408-14.69,5.586-20.213,4.426c-13.172-2.765-29.24-25.734-37.205-33.153c-32.118-29.914-33.661-15.143-46.82-21.532
			c-10.892-5.288-23.253-22.753-31.364-31.049c-6.278-6.421-6.754-10.518-15.295-11.466c-7.355-0.817-14.007,4.724-20.901,2.397
			c-12.894-4.353-26.604-21.929-37.676-30.175c-17.487-13.023-22.805-20.072-40.236-6.299
			c-11.844,9.358-44.143,39.465-65.987,50.016c-7.584,3.663-16.673,4.269-24.469,7.485c-2.101,0.867-4.754,2.686-7.378,4.47v191.723
			c5.188-0.141,10.375-0.282,15.563-0.423c141.704-3.856,283.709-0.784,425.451-0.461c123.709,0.282,247.4,1.85,371.101,1.52
			c1.973-0.005,6.959,0.494,12.764,0.96v-64.217C787.514,394.782,785.906,394.272,784.247,393.662z"/>
		
			<linearGradient id="SVGID_00000021103258479476087930000015344177772679713425_" gradientUnits="userSpaceOnUse" x1="374.8358" y1="488.7422" x2="386.9265" y2="306.6694">
			<stop  offset="0.1078" style="stop-color:#A8A595"/>
			<stop  offset="0.2749" style="stop-color:#879296"/>
			<stop  offset="0.5412" style="stop-color:#597898"/>
			<stop  offset="0.746" style="stop-color:#3C679A"/>
			<stop  offset="0.8632" style="stop-color:#31619A"/>
		</linearGradient>
		
			<path style="clip-path:url(#SVGID_00000013883325904035352430000014546659706234194867_);fill:url(#SVGID_00000021103258479476087930000015344177772679713425_);" d="
			M715.948,506.255c-11.628-21.089-23.135-43.889-44.525-53.526c39.357-0.783,78.44,1.555,117.656,3.989V341.94
			c-17.829-6.77-54.723-21.417-58.707-22.588c-20-5.878-19.811-11.569-39.484-10.818c-19.901,0.76-29.294-30.081-38.98-21.332
			c-9.977,9.012-13.062,15.466-25.784,21.043c-10.492,4.599-13.423,5.746-23.579,2.833c-14.564-4.178-14.69-11.926-27.617-5.049
			c-8.385,4.46-11.08,14.837-18.424,19.97c-5.397,3.772-14.038,5.281-20.123,8.644c-16.691,9.226-34.769,27.474-54.117,28.061
			c-5.28,0.16-10.511-2.665-15.764-2.22c-5.953,0.505-11.574,4.78-17.513,5.485c-9.959,1.182-10.536,0.79-19.743-4.312
			c-8.684-4.812-15.302-14.009-32.372-24.144c-9.476-5.626-18.816-14.399-27.616-16.57c-8.891-2.194-20.618,8.541-23.664,7.893
			c-7.311-1.557-11.713-7.664-18.019-10.954c-9.436-4.922-15.289-13.448-24.894-11.925c-9.033,1.432-16.625,10.946-23.048,16.428
			c-3.053,2.605-8.593,9.257-12.197,10.048c-4.371,0.96-8.118-3.676-12.518-3.02c-7.498,1.118-13.398,9.107-18.936,15.079
			c-13.55,14.611-28.968,29.729-49.363,23.876c-16.054-4.608-15.532-13.35-29.554-3.48c-6.827,4.805-9.919,13.809-16.488,18.4
			c-6.447,4.506-16.706,6.755-23.88,11.044c-9.158,5.475-17.754,11.958-27.017,17.252c-19.057,10.889-33.236,4.186-53.024,11.079
			c-23.291,8.112-36.521,17.719-56.117,33.068c-5.397,4.227-10.809,7.686-16.338,10.732v39.792H715.948z"/>
		
			<linearGradient id="SVGID_00000014605938389028295710000014211688088697054877_" gradientUnits="userSpaceOnUse" x1="239.1182" y1="561.2871" x2="285.2034" y2="290.9218" gradientTransform="matrix(-1 0 0 1 746.3579 0)">
			<stop  offset="0.1078" style="stop-color:#A8A595"/>
			<stop  offset="0.2749" style="stop-color:#879296"/>
			<stop  offset="0.5412" style="stop-color:#597898"/>
			<stop  offset="0.746" style="stop-color:#3C679A"/>
			<stop  offset="0.8632" style="stop-color:#31619A"/>
		</linearGradient>
		
			<path style="clip-path:url(#SVGID_00000013883325904035352430000014546659706234194867_);fill:url(#SVGID_00000014605938389028295710000014211688088697054877_);" d="
			M789.079,324.606c-18.358-10.25-37.91-21.075-51.475-35.271c-18.052-18.892-43.669-18.08-67.799-22.815
			c-12.709-2.494-21.666-15.452-32.912-18.237c-10.304-2.552-22.211,10.894-29.654,17.246c-3.546,3.026-35.929,27.373-40.071,27.969
			c-4.95,0.712-9.59-4.929-14.631-3.715c-11.457,2.759-20.626,16.754-29.314,15.852c-8.702-0.904-13.325-5.775-18.415-5.859
			c-5.591-0.092-11.575,4.793-20.138,8.256c-11.556,4.673-48.487,34.956-59.807,41.857c-9.972,6.079-19.541,12.9-30.921,13.249
			c-14.766,0.453-19.725-0.799-34.65,4.399c-25.897,9.02-43.906,25.665-65.538,42.609c-41.907,17.092-83.814,34.183-125.721,51.275
			c38.788-0.772,77.575-1.544,116.363-2.315c108.677-2.162,217.425-5.727,326.122-6.489c59.29-0.415,119.079,4.695,178.56,9.221
			V324.606z"/>
		
			<linearGradient id="SVGID_00000076599617879664920870000018251481042350463369_" gradientUnits="userSpaceOnUse" x1="674.9182" y1="301.4841" x2="674.9182" y2="254.5505">
			<stop  offset="0" style="stop-color:#D9F1F8;stop-opacity:0"/>
			<stop  offset="0.1236" style="stop-color:#E6F6FA;stop-opacity:0.1236"/>
			<stop  offset="0.3328" style="stop-color:#F4FBFD;stop-opacity:0.3328"/>
			<stop  offset="0.586" style="stop-color:#FCFEFF;stop-opacity:0.586"/>
			<stop  offset="1" style="stop-color:#FFFFFF"/>
		</linearGradient>
		
			<path style="opacity:0.39;clip-path:url(#SVGID_00000013883325904035352430000014546659706234194867_);fill:url(#SVGID_00000076599617879664920870000018251481042350463369_);" d="
			M777.086,301.484c0.081-0.66,0.144-1.323,0.168-1.988c0.144-3.993-0.767-7.999-3.089-11.193
			c-3.036-4.169-7.771-6.236-12.252-6.868c0.149-0.686,0.233-1.397,0.233-2.127c0-5.511-4.468-9.979-9.979-9.979
			c-2.23,0-4.282,0.74-5.943,1.976c-3.628-10.318-12.42-16.754-24.109-16.754c-11.366,0-21.77,5.071-24.642,15.976
			c-4.481-3.542-9.942-2.332-11.587,2.897c0.284-5.557-5.877-13.556-16.668-13.556c-5.561,0-12.811,2.481-14.956,9.932
			c-2.094-4.763-5.818-5.824-10.23-5.415c-4.407,0.415-7.85,5.589-7.886,9.312c-4.403-2.576-9.31-4.603-14.418-4.616
			c-5.102-0.018-9.336,1.48-12.836,5.203c-3.772,4.002-3.902,10.584-1.909,15.649c-5.052-1.139-8.887,2.206-7.75,7.264
			c-6.034-2.833-9.736-2.914-16.231-1.484c-3.925,0.865-7.645,2.904-10.433,5.771H777.086z"/>
		
			<linearGradient id="SVGID_00000011718033259368689970000002156834613446952114_" gradientUnits="userSpaceOnUse" x1="666.8198" y1="434.4243" x2="628.7407" y2="289.5382">
			<stop  offset="0" style="stop-color:#8D94A4"/>
			<stop  offset="1" style="stop-color:#003D86"/>
		</linearGradient>
		
			<path style="clip-path:url(#SVGID_00000013883325904035352430000014546659706234194867_);fill:url(#SVGID_00000011718033259368689970000002156834613446952114_);" d="
			M757.566,283.672c-5.406-4.151-15.232-17.18-21.745-18.62c-5.697-1.259-14.289,6.114-19.753,8.454
			c-5.046,2.161-8.318,3.849-11.432,6.025l-0.885-2.344l-0.159-0.402l0.291,0.339l0.402,0.301l-1.549-4.499l-1.154,3.998l0.39-0.359
			l-1.311,2.879l0.809-0.554l-0.635,1.131l0.403-0.361l-1.159,2.431l1.089-1.421l-0.635,2.056c-0.103,0.087-0.202,0.169-0.306,0.257
			l-0.805-2.441l0.762,1.159l-1.323-4.365l0.793,1.116l-0.785-2.04l0.702,0.624l-1.102-3.331l0.428,0.451l0.421,0.439l-1.6-6.346
			l-1.449,5.974l0.736-0.675l-0.96,3.438l0.61-0.938l-1.013,3.826l-1.226-3.265l-1.483,3.991l0.753-0.429l-0.983,2.293l0.624-0.612
			l-1.432,3.528l1.103-1.279l-0.668,1.974l0.599-0.323l-1.121,1.6l1.008-0.44l-1.455,2.146l1.064-0.753l-1.035,2l0.779-0.523
			l-0.74,1.264c-2.012,1.858-4.14,3.754-6.238,5.41l-1.716-5.668l0.906,1.325l-1.425-4.479l1.093,1.042l-2.151-7.717l-2.063,6.316
			l-2.802-8.964l-2.576,8.448l1.309-0.933l-1.624,4.622l-1.136-3.726l-2.151,7.245l1.093-0.802l-1.425,4.167l0.906-1.126
			l-2.078,6.408l1.6-2.347l-0.666,2.463c-1.24,0.176-2.453,0.362-3.667,0.674l-1.157-3.701l0.94,1.283l-0.931-2.344l0.832,0.719
			l-1.305-3.826l0.507,0.519l0.498,0.505l-1.895-7.287l-1.717,6.847l0.872-0.772l-1.138,3.94l0.723-1.073l-1.659,6.058l1.277-2.232
			l-0.773,3.382l0.693-0.582l-0.216,0.461c-1.025,0.646-2.075,1.466-3.167,2.538c-0.762,0.747-1.524,1.495-2.286,2.242l-0.995-2.5
			l0.818,1.038l-1.419-3.875l0.851,1l-0.843-1.815l0.753,0.565l-1.181-2.96l0.459,0.406l0.451,0.395l-1.716-5.628l-1.554,5.236
			l0.79-0.58l-1.03,3.011l0.654-0.814l-1.282,3.954l-0.41-1.065l0.502,0.446l-0.787-2.38l0.306,0.322l0.3,0.313l-1.143-4.534
			l-1.035,4.267l0.526-0.482l-0.686,2.456l0.436-0.67l-0.606,2.288l-1.105-3.24l0.507,0.519l0.498,0.505l-1.895-7.287l-1.717,6.847
			l0.872-0.771l-1.138,3.94l0.723-1.073l-1.659,6.059l1.277-2.232l-0.773,3.382l0.693-0.582l-1.298,2.776l1.166-0.804l-1.585,3.501
			l-1.456-3.617l-1.523,3.799l0.774-0.404l-1.009,2.181l0.641-0.579l-1.471,3.357l1.133-1.213l-0.686,1.879l0.615-0.303
			l-1.151,1.519l0.908-0.361c-0.53,0.52-1.059,1.039-1.588,1.558c-38.264,25.596-76.527,51.193-114.791,76.789
			c45.782,1.974,91.565,3.949,137.347,5.923c33.322,1.437,66.537,3.001,99.904,5.346c0.743,0.052,1.439,0.119,2.095,0.192V286.82
			C761.074,285.824,759.077,284.832,757.566,283.672z M656.595,310.193c-0.172,0.169-0.344,0.337-0.516,0.506l-0.625-1.684
			L656.595,310.193z M643.191,321.723l0.328,0.193l-0.076,0.22L643.191,321.723z M643.686,322.015l0.243,0.143l-0.134-0.255
			l0.48-0.496l-0.5,1.274l-0.283-0.465L643.686,322.015z M648.94,311.668l0.18-0.129l-0.129,0.293L648.94,311.668z M649.106,310.518
			l-0.037-0.094l0.131-0.114L649.106,310.518z M651.455,309.395l0.249,0.379l-0.078,0.14L651.455,309.395z M651.898,310.741
			l-0.113-0.343l0.429-0.244L651.898,310.741z M651.31,310.668l0.036-0.02l0.363,0.447l-0.17,0.316L651.31,310.668z
			 M651.805,311.977l-0.053,0.129l-0.02-0.064L651.805,311.977z M652.406,306.49l-0.7,2.587l0.627-0.437l-0.527,0.948l-0.466-1.536
			l0.189-0.277l0.09,0.127l-0.064-0.166L652.406,306.49z M651.429,307.632l-0.111,0.343l-0.264-0.871L651.429,307.632z
			 M649.248,308.567l-0.328,1.484l-0.206-0.518l0.293-0.53l0.064,0.056l-0.036-0.106L649.248,308.567z M648.783,308.808
			l-0.143,0.539l-0.4-1.008L648.783,308.808z M648.521,309.796l-0.043,0.164l0.07-0.127l0.323,0.44l-0.089,0.402l0.234-0.204
			l0.069,0.094l-0.289,0.64l-0.565-1.805L648.521,309.796z M643.221,320.265l0.442,0.302l-0.194-0.481l1.102-1.197l-0.939,2.703
			l-0.861-1.638L643.221,320.265z M643.183,322.321l0.54,0.491l-0.006,0.014c-0.066,0.065-0.132,0.129-0.198,0.194L643.183,322.321z
			 M679.695,292.971l-0.217-0.578l0.299-0.286l0.18,0.206L679.695,292.971z M679.994,291.9l0.206-0.197l-0.136,0.342L679.994,291.9z
			 M680.108,290.73l-0.349,0.676l-0.229-0.482l0.489-0.26L680.108,290.73z M679.376,290.602l-0.299-0.629l0.435,0.319
			L679.376,290.602z M679.538,291.833l-0.156,0.302l-0.318-0.846L679.538,291.833z M674.57,294.105l-0.069,0.247l-0.038-0.095
			L674.57,294.105z M684.954,296.639c-0.159,0.125-0.318,0.245-0.477,0.366l-0.525-2.055L684.954,296.639z M679.128,286.762
			l0.681,0.584l-0.286,0.877l0.624-0.41l0.635-0.423l-0.976,2.231l-1.439-3.516L679.128,286.762z M675.142,289.367l-0.694,2.084
			l-0.277-0.91L675.142,289.367z M666.122,303.377l0.087,0.128c-0.013,0.004-0.026,0.008-0.039,0.012L666.122,303.377z
			 M704.565,279.58c-0.052,0.036-0.104,0.073-0.155,0.109l-0.593-1.212L704.565,279.58z M703.997,279.87l0.067,0.071
			c-0.007,0.005-0.013,0.01-0.02,0.015L703.997,279.87z M695.628,280.656l0.364,0.265l-0.161,0.728l-0.354-0.721L695.628,280.656z
			 M695.593,282.179l0.106,0.066l-0.019,0.086L695.593,282.179z M695.746,282.275l0.245,0.154l-0.113,0.251l-0.198-0.347
			L695.746,282.275z M696.098,282.193l-0.077-0.157l0.245-0.213L696.098,282.193z M695.586,282.805l0.164,0.159l-0.046,0.102
			L695.586,282.805z M696.154,283.542l-0.117,0.267l-0.062-0.138L696.154,283.542z M699.992,283.186
			c-0.132,0.113-0.267,0.232-0.4,0.349l-0.417-1.356L699.992,283.186z M696.333,279.382l-0.324,1.466l-0.197-0.524L696.333,279.382z
			 M695.465,280.537l-0.063,0.238l-0.218-0.444L695.465,280.537z"/>
		
			<linearGradient id="SVGID_00000108278009367077717220000002760316325322695574_" gradientUnits="userSpaceOnUse" x1="373.1437" y1="571.5077" x2="377.9727" y2="307.1265">
			<stop  offset="0" style="stop-color:#8D878A"/>
			<stop  offset="1" style="stop-color:#003D86"/>
		</linearGradient>
		
			<path style="clip-path:url(#SVGID_00000013883325904035352430000014546659706234194867_);fill:url(#SVGID_00000108278009367077717220000002760316325322695574_);" d="
			M789.079,506.255v-85.908c-1.873-0.887-3.693-1.785-5.4-2.727c-9.192-5.074-12.169-7.898-19.198-15.584
			c-7.105-7.77-6.647-8.773-15.111-7.355c-12.314,2.062-10.027,8.86-22.833,4.601c-8.797-2.925-12.406-8.629-18.018-15.177
			c-2.848-3.323-4.811-8.195-8.513-10.734c-6.066-4.16-5.316-1.551-10.154-3.342c-1.123-0.415-3.39,2.456-4.514,2.055
			c-2.14-0.763-3.198-4.26-5.374-5.02c-1.195-0.417-4.324-2.759-5.502-3.493c-7.959-4.965-17.398-7.603-25.509-12.327
			c-6.478-3.773-16.059-15.156-23.162-16.071c-6.868-0.884-11.877,7.617-19.224,7.546c-6.539-0.063-11.011-7.605-16.385-12.375
			c-6.308-5.599-10.971-11.503-18.757-9.993c-9.876,1.916-7.251,11.124-16.907,5.892c-10.989-5.955-3.473-10.505-16.615-7.703
			c-6.786,1.447-13.162,6.575-19.591,9.113c-8.484,3.349-14.384,6.523-19.862,10.264l-0.886-3.167l1.547,1.538l-3.045-12.476
			l-3.361,12.555l0.883-0.799l0.899-0.821l-2.315,6.532l1.475-1.114l-0.755,1.818c-0.212,0.164-0.424,0.33-0.637,0.497l-2.221-7.092
			l1.606,2.173l-2.528-7.666l1.938,1.635l-3.815-13.267l-4.211,13.351l1.107-0.849l1.126-0.874l-2.9,6.946l1.848-1.185l-1.946,3.978
			l-1.386-3.224l0.731,0.762l-2.165-7.811l-2.906,8.198l0.755-0.487l0.547-0.581l-0.297,0.727l-1.906,4.886l1.784-2.456l-2.301,4.49
			l1.963-1.89l-2.315,4.047l1.047-1.063l-1.22,2.901l-3.255-10.321l-3.815,13.267l1.938-1.635l-2.528,7.666l0.923-1.249
			l-1.824,5.098l0.562-0.359l0.256-0.269l-0.305,0.974l-0.276,0.701l-0.982-3.814l0.823,1.356l-1.296-4.782l0.993,1.02l-1.956-8.275
			l-2.159,8.328l0.567-0.53l0.578-0.545l-1.487,4.333l0.947-0.739l-0.787,1.957l-2.27-8.821l1.082,1.781l-1.703-6.284l1.306,1.341
			l-2.57-10.876l-2.837,10.944l0.746-0.696l0.759-0.716l-1.954,5.694l1.245-0.971l-1.393,3.466l1.407-1.824l-2.229,7.11
			l-1.549-3.984l1.107,1.207l-1.743-4.257l1.336,0.908l-2.63-7.367l-2.903,7.413l0.763-0.472l0.776-0.485l-1.999,3.857l1.274-0.658
			l-1.426,2.348l1.439-1.236l-2.401,5.07l1.383-1.292l-1.959,3.791l2.408-1.791l-2.967,6.176l1.767-1.484l-1.721,2.794l1.812-1.375
			l-1.518,2.504l-2.26-5.405l1.137,1.152l-1.79-4.064l1.372,0.867l-2.701-7.034l-2.981,7.078l0.784-0.45l0.798-0.463l-2.053,3.682
			l1.308-0.628l-1.464,2.241l1.478-1.18l-2.466,4.84l1.42-1.234l-2.012,3.62l2.474-1.71l-2.371,4.588
			c-0.02,0.011-0.041,0.021-0.06,0.033c-8.338,4.827-13.279,32.462-26.412,34.027c-5.042,0.601-9.995-9.234-16.338-8.986
			c-7.347,0.288-10.748,10.108-21.289,9.167l-1.305-4.236l1.123,1.84l-1.068-3.131l0.984,1.046l-1.986-6.706l2.042,2.917
			l-2.175-4.844l0.367,0.373l0.389,0.395l0,0l0,0l-1.193-2.274l1.518,1.217l-2.46-5.723l0.731,0.762l-2.165-7.811l-2.906,8.198
			l0.755-0.487l0.547-0.581l-0.297,0.727l-1.906,4.887l1.784-2.456l-2.301,4.49l1.963-1.89l-2.03,3.549l-1.299-3.788l0.759,0.716
			l0.745,0.696l-2.837-10.944l-2.57,10.875l1.306-1.34l-1.703,6.284l1.082-1.782l-0.803,3.12
			c-5.191-3.25-10.288-7.377-15.302-11.306l-1.307-3.7l1.602,2.188l-2.78-8.586l1.667,2.093l-1.651-3.976l1.475,1.114l-2.315-6.532
			l0.899,0.821l0.883,0.798l-3.361-12.555l-2.214,9.072l-1.959-5.458l1.732,2.044l-2.725-7.209l2.09,1.538l-4.113-12.476
			l-4.012,11.096l-2.054-5.434l1.674,1.232l-3.295-9.996l-3.637,10.059l0.956-0.64l0.973-0.658l-2.505,5.234l1.596-0.892
			l-1.786,3.186l1.804-1.677l-3.008,6.879l1.733-1.753l-2.455,5.144l3.018-2.43l-2.837,6.395l-1.839-4.095l0.367,0.373l0.389,0.395
			l-1.193-2.274l1.518,1.217l-2.46-5.723l0.731,0.762l-2.165-7.811l-2.68,7.56l-0.957-2.131l0.367,0.373l0.389,0.395l-1.193-2.274
			l1.518,1.217l-2.46-5.723l0.731,0.762l-2.165-7.811l-2.906,8.198l0.755-0.487l0.547-0.581l-0.298,0.727l-1.906,4.886l1.785-2.456
			l-2.301,4.49l1.963-1.89l-2.316,4.047l1.047-1.063l-1.41,3.354c-4.976-1.81-9.814-3.779-14.261-6.278
			c-3.736-2.1-7.016-4.745-10.036-7.682l-1.407-2.672l1.938,1.473l-2.65-3.903l1.835,0.932l-2.042-2.918l1.09,0.658l-1.217-3.466
			l2.009,2.371l-2.609-6.239l1.137,1.152l-1.79-4.064l1.372,0.867l-2.701-7.034l-2.511,5.961l-1.624-6.111l1.282,2.044l-2.018-7.209
			l1.547,1.538l-3.045-12.476l-3.361,12.555l0.883-0.799l0.899-0.821l-1.96,5.532l-1.075-4.177l0.773,1.273l-1.217-4.489
			l0.933,0.958l-1.836-7.769l-1.195,4.611l-1.03-3.581l-0.824,2.613l-1.281-3.085l1.475,1.114l-2.315-6.532l0.899,0.822l0.883,0.798
			l-3.361-12.555l-3.045,12.476l1.547-1.538l-2.018,7.209l1.282-2.044l-1.725,6.491c-2.716-1.83-5.904-3.391-9.337-4.808
			l-2.314-8.704l1.282,2.044l-2.018-7.209l1.547,1.538l-3.045-12.476l-3.361,12.555l0.883-0.798l0.899-0.822l-2.315,6.532
			l1.475-1.114l-1.651,3.976l1.667-2.093l-1.154,3.565c-2.224-0.76-4.475-1.501-6.712-2.243l-2.718-8.682l1.606,2.173l-2.528-7.666
			l1.938,1.635l-3.815-13.267l-2.014,6.387l-2.881-8.512l2.321,1.908l-4.569-15.482l-4.97,15.354l-3.659-11.602l-3.815,13.267
			l1.938-1.635l-2.528,7.666l1.606-2.173l-3.685,11.768l2.838-4.473l-1.172,4.46c-1.754-0.042-3.351,0.185-4.875,0.585l-1.738-6.751
			l1.082,1.781l-1.703-6.284l1.306,1.341l-2.57-10.876l-1.652,6.374l-1.742-4.482l1.107,1.207l-1.743-4.257l1.336,0.908l-2.63-7.367
			l-2.903,7.413l0.763-0.471l0.776-0.485l-1.999,3.857l1.274-0.658l-1.426,2.348l1.439-1.236l-2.401,5.07l1.383-1.292l-1.959,3.791
			l2.408-1.791l-2.967,6.176l1.767-1.484l-1.721,2.794l1.812-1.376l-2.2,3.629l-0.821-1.911l0.731,0.762v0h0l-2.165-7.811
			l-2.906,8.198l0.755-0.487l0.547-0.581l-0.297,0.727l-1.017,2.608l-1.138-3.631l1.005,1.303l-0.995-2.476l0.889,0.694
			l-1.395-4.068l0.542,0.512l0.533,0.497l-2.027-7.818l-1.836,7.769l0.933-0.957l-1.217,4.489l0.773-1.273l-1.364,5.301l-2.187-5.04
			l0.883,0.912l-2.617-9.353l-2.431,6.794l-1.032-3.015l0.966,1.363l-1.676-5.347l1.005,1.303l-0.995-2.476l0.889,0.694
			l-1.395-4.068l0.542,0.511l0.533,0.497l-2.027-7.818l-0.571,2.418l-2.384-4.609l2.156,2.941l-2.303-5.851l-0.359-0.871
			l0.661,0.695l0.912,0.583l-3.512-9.816l-2.617,9.352l0.883-0.912l-2.973,6.852l1.835-1.457l-1.441,2.723l0.914-0.919l-2.629,5.8
			l2.468-3.492l-1.843,6.167l-2.326-4.566l1.478,1.18l-1.464-2.241l1.308,0.628l-2.053-3.683l0.798,0.463l0.783,0.45l-2.981-7.078
			l-1.642,4.277l-1.121-2.874l-0.298-0.727l0.547,0.581l0.755,0.487l-2.906-8.198l-2.165,7.811l0,0v0l0.731-0.762l-0.712,1.657
			l-1.608-4.537l-2.165,7.811h0l0.731-0.762l-2.213,5.148l-1.871-4.796l-0.297-0.727l0.547,0.581l0.755,0.487l-2.906-8.198
			l-2.165,7.811l0.731-0.762l-2.46,5.723l1.518-1.217l-1.192,2.274l0.389-0.395l0.367-0.373l-1.713,3.815
			c-1.736-1.672-3.49-3.353-5.282-5.017l0.193,0.053l-1.476-1.231c-0.039-0.036-0.079-0.072-0.118-0.108l-0.487-0.874l3.06,1.226
			l-1.965-2.331l1.855,1.38l-2.277-3.794l1.854,1.52l-2.49-6.912l1.44,1.513l-1.448-2.35l1.266,1.013l-2.013-4.24l1.355,1.89
			l-1.533-5.314l0.968,1.774l-1.28-5.073l1.875,2.114l-1.641-3.869l0.989,0.995l-2.189-3.79l1.855,1.77l-2.175-4.205l1.687,2.301
			l-1.802-4.576l-0.281-0.681l0.517,0.544l0.714,0.456l-2.747-7.678l-0.066,0.808l-1.981,6.507l0.691-0.713l-2.325,5.36l1.435-1.14
			l-1.127,2.13l0.715-0.719l-2.056,4.537l1.93-2.732l-1.877,6.28l0.93-0.979l-1.009,2.932l1.062-1.723l-1.362,4.383l-1.13-2.379
			l1.067,1.489l-1.208-4.187l0.763,1.398l-1.008-3.997l1.478,1.665l-1.293-3.048l0.779,0.784l-1.725-2.986l1.462,1.395l-1.714-3.313
			l1.329,1.813l-1.42-3.606l-0.222-0.537l0.407,0.428l0.562,0.359l-2.164-6.049l-0.052,0.637l-1.561,5.127l0.544-0.562l-1.832,4.223
			l1.131-0.898l-0.888,1.678l0.563-0.567l-1.02,2.251l-1.858-4.87l2.088,2.226l-2.068-4.228l1.848,1.184l-2.9-6.946l1.126,0.873
			l1.107,0.849l-4.211-13.351l-3.815,13.267l1.938-1.635l-2.444,7.413l-3.635-10.414l-0.244-1.988l-3.815,13.267l1.938-1.635
			l-1.842,5.586c-0.16-0.081-0.319-0.161-0.479-0.242l-0.765-1.832l0.695,0.539l0.683,0.524l-2.448-7.013l-0.151-1.227l-2.01,6.992
			c-8.967-4.527-17.938-9.057-26.895-13.578c-9.206-4.647-14.255-8.687-22.138-5.2c-0.161,0.071-0.32,0.151-0.478,0.236
			l-0.732-2.927l1.984,2.257l-1.736-4.131l1.047,1.063l-2.316-4.047l1.963,1.89l-2.301-4.49l1.784,2.456l-1.906-4.886l-0.297-0.727
			l0.547,0.581l0.755,0.487l-2.906-8.198l-2.166,7.811h0l0.731-0.761l-2.46,5.723l1.518-1.217l-1.192,2.274l0.389-0.395l0.367-0.373
			l-2.175,4.844l2.042-2.917l-1.986,6.706l0.984-1.046l-1.068,3.131l1.123-1.84l-1.552,5.041l-1.051-3.353l1.407,1.824l-1.393-3.466
			l1.245,0.971l-1.953-5.694l0.759,0.716l0.746,0.696l-2.672-9.314l-0.165-1.63l-2.57,10.875l1.306-1.34l-1.703,6.284l1.082-1.782
			l-2.483,9.647l1.912-3.666l-1.158,5.359l1.038-1.017l-0.959,2.225c-8.227-0.788-14.715-13.605-21.606-15.446
			c-4.968-1.327-13.743,2.441-18.845,5.198c-1.546,0.835-3.322,2.114-5.254,3.637v252.217H789.079z M491.256,343.269
			c-0.06,0.048-0.12,0.096-0.18,0.144l-0.192-0.73L491.256,343.269z M484.229,337.655l-1.324,3.47l-0.607-1.412L484.229,337.655z
			 M482.713,341.629l-0.218,0.572l-0.676-1.289L482.713,341.629z M474.77,356.025l-0.19-0.389l0.146-0.206l0.239,0.153
			L474.77,356.025z M476.059,347.103l-0.792,3.169l-0.526-1.669L476.059,347.103z M474.441,350.312l0.685,0.526l-0.421,1.683
			l0.766-1.418l0.076,0.058l-0.04-0.126l0.221-0.409l-0.78,2.729l-1.635-3.917L474.441,350.312z M468.539,354.934l-0.242,0.772
			l-0.049-0.162l-0.016-0.195L468.539,354.934z M460.718,366.289l-0.587-1.405l0.416,0.343l-0.022,0.072l0.04-0.057l0.399,0.329
			L460.718,366.289z M461.721,366.616c-0.227,0.152-0.453,0.296-0.68,0.446l-0.005-0.012l0.729-0.818l0.062,0.051L461.721,366.616z
			 M461.091,364.5l0.462-0.652l-0.329,0.962L461.091,364.5z M461.418,360.548l-0.179,0.444l0.245-0.318l0.241,0.463l-0.15-0.582
			l0.734-0.952l-1.402,4.472l-0.974-2.262l1.038,1.017l-1.158-5.359L461.418,360.548z M453.223,366.757l-0.762-1.208l0.977,0.534
			L453.223,366.757z M452.259,363.468l0.427,0.277l-0.085,0.249L452.259,363.468z M453.609,365.543l-0.885-1.361l0.233-0.262
			l0.364,0.236l-0.154-0.472l0.773-0.868l0.153,0.194l-0.099-0.255l0.78-0.877L453.609,365.543z M454.336,358.926l-0.857,2.504
			l-0.325-0.836L454.336,358.926z M453.288,361.989l-0.345,1.009l-0.806-2.471L453.288,361.989z M443.228,373.982l-0.409-0.585
			l0.559,0.337L443.228,373.982z M444.609,373.681l-0.58,0.929c-0.101,0.029-0.201,0.057-0.302,0.085l-0.15-0.214L444.609,373.681z
			 M444.204,372.373l-0.561,0.925l-0.951-2.708L444.204,372.373z M361.742,408.324l-0.09-0.287l0.365-0.675L361.742,408.324z
			 M362.099,401.965l-0.526,1.251l-0.183-0.532L362.099,401.965z M361.891,404.358l0.1,0.078l-0.048-0.138l0.403-0.458l-0.556,2.224
			l-0.439-1.092L361.891,404.358z M361.712,406.377l-0.258,1.031l-0.59-1.883l0.102-0.116L361.712,406.377z M361.29,403.889
			l-0.191,0.454l-0.353-0.878L361.29,403.889z M333.933,379.081l-0.386,1.377l-0.467-1.551l0.422-0.419L333.933,379.081z
			 M333.093,377.927l-0.138,0.566l-0.389-1.29L333.093,377.927z M324.645,374.182l-0.391-0.65l0.002-0.002l0.515,0.362
			L324.645,374.182z M324.553,371.049l0.458-0.256l0.139,0.191l-0.401,0.716L324.553,371.049z M325.15,373.028l-0.077-0.256
			l0.319-0.297L325.15,373.028z M325.289,365.995l1.215-0.822l-1.56,3.26l-0.639-1.78L325.289,365.995z M324.576,365.467
			l-0.35,0.968l-0.86-2.396L324.576,365.467z M316.133,379.954l-0.314,0.551c-0.069-0.026-0.137-0.052-0.206-0.078L316.133,379.954z
			 M314.671,380.068c-0.341-0.128-0.681-0.255-1.023-0.381l-0.554-1.872L314.671,380.068z M307.736,373.871l-0.047-0.158
			l0.435-0.598L307.736,373.871z M307.996,370.538l0.547-0.581l-0.297,0.727l-0.299,0.767l-0.307-0.684L307.996,370.538z
			 M307.798,371.831l-0.379,0.971l-0.776-2.62L307.798,371.831z M300.315,372.94l-0.477,1.908c-0.305-0.109-0.607-0.22-0.91-0.33
			L300.315,372.94z M266.228,349.798l-0.218-0.49l0.315,0.299L266.228,349.798z M266.827,348.623l-0.082-0.366l0.451-0.36
			L266.827,348.623z M267.13,344.245l0.797-0.463l-0.715,1.283l-0.2-0.752L267.13,344.245z M267.183,346.836l-0.562,0.861
			l-0.119-0.534L267.183,346.836z M266.731,345.928l-0.361,0.647l-0.501-2.248L266.731,345.928z M259.555,342.691l-0.513-1.191
			l0.122-0.154l0.415,0.407l-0.158-0.73l0.572-0.718l0.125,0.239l-0.077-0.299l0.515-0.646L259.555,342.691z M260.54,337.716
			l-0.71,1.71l-0.253-0.983L260.54,337.716z M259.13,338.649l-0.064,0.182l0.114-0.086l0.52,0.997l-0.365,0.879l-0.582-2.695
			L259.13,338.649z M253.853,327.574l-0.352,1.115l-0.849-2.622L253.853,327.574z M236.131,325.285
			c-0.175-0.07-0.348-0.142-0.524-0.211l-0.29-1.3L236.131,325.285z M220.879,319.945c-0.131-0.044-0.262-0.088-0.393-0.132
			l-0.219-0.833L220.879,319.945z M214.553,301.117l-0.492,1.559l-1.231-3.831L214.553,301.117z M204.102,302.64l-0.242-0.634
			l0.365,0.389L204.102,302.64z M204.023,300.297l0.159-0.099l0.867,0.556l-0.406,0.81L204.023,300.297z M204.755,304.352
			l-0.464-1.216l0.319-0.331l0.529,0.564L204.755,304.352z M205.312,302.931l-0.277-0.566l0.84-0.873L205.312,302.931z
			 M205.08,299.637l0.771-0.482l-0.531,1.057L205.08,299.637z M203.955,295.116l1.107,0.849l-0.508-1.611l1.208-0.903l1.349-1.019
			l-2.552,5.956l-1.73-4.146L203.955,295.116z M190.489,312.263c-0.092,0.027-0.182,0.059-0.273,0.087l-0.225-1.042L190.489,312.263
			z M185.478,302.934l-0.429-0.68l0.558,0.305L185.478,302.934z M184.847,300.174l0.329,0.214l-0.054,0.209L184.847,300.174z
			 M186.203,300.822l-0.322,0.94l-0.256-0.394L186.203,300.822z M185.68,298.446l-0.248,0.956l-0.708-2.169L185.68,298.446z
			 M177.197,310.387l-0.446,0.715l-0.119-0.276L177.197,310.387z M176.5,312.649l0.339,0.272l-0.133,0.255l-0.255-0.487
			L176.5,312.649z M171.979,311.285l-0.59,1.152l-0.074-0.237L171.979,311.285z M171.119,312.469l0.147,0.207l-0.189,0.369
			l-0.121-0.352L171.119,312.469z M170.922,314.577l0.197,0.221l-0.321,0.561l-0.161-0.506L170.922,314.577z M165.845,317.676
			l-0.252-0.844l0.145-0.12l0.32,0.453L165.845,317.676z M165.96,315.496l-0.695-1.534l0.914,0.919l-0.186-0.352l0.665-0.651
			L165.96,315.496z M166.742,310.776l-0.466,2.159l-0.299-0.69L166.742,310.776z M166.194,313.316l-0.245,1.133l-0.565-1.068
			l0.261-0.501L166.194,313.316z M165.532,312.791l-0.151,0.586l-0.644-1.217L165.532,312.791z M159.926,306.862l-0.359,0.871
			l-0.198,0.503l-0.197-0.619l0.094-0.06L159.926,306.862z M159.28,305.55l-0.405,1.133l-0.785-2.47L159.28,305.55z
			 M155.598,289.498l-0.248,1.048l-1.652-2.861L155.598,289.498z M144.385,297.793l0.522,0.361l-0.023,0.077l0.053-0.056
			l0.585,0.405l-0.327,0.951L144.385,297.793z M145.574,300.343l-0.239-0.513l0.597-0.969l0.085,0.059L145.574,300.343z
			 M146.073,296.978l-0.398,1.156l-0.259-0.465L146.073,296.978z M145.404,296.489l-0.225,0.753l-1.019-1.834L145.404,296.489z
			 M139.165,288.801l-0.338-0.59l0.072-0.046l0.383,0.369L139.165,288.801z M139.107,286.407l-0.096,0.251l-0.669-1.305
			L139.107,286.407z M128.713,297.275l-0.188-0.75l0.307,0.349L128.713,297.275z M127.505,291.666l1.765,1.7l-0.349,0.776
			L127.505,291.666z M129.194,295.651l-0.216-0.515l0.114-0.163l0.233,0.237L129.194,295.651z M129.396,294.971l-0.136-0.237
			l0.357-0.51L129.396,294.971z M129.316,293.262l-0.177-0.345l0.243-0.247l0.367-0.373L129.316,293.262z M130.186,290.79
			l-1.08,2.06l-0.434-0.846L130.186,290.79z M128.904,291.459l-0.233,0.543l-1.504-2.935L128.904,291.459z M122.196,293.767
			l-0.785,2.652c-0.213-0.205-0.427-0.411-0.64-0.616L122.196,293.767z M104.418,280.561l-0.111-0.307l0.596-1.117L104.418,280.561z
			 M104.225,277.866l0.231,0.185l-0.153-0.322l0.561-0.985l-0.483,2.006l-0.342-0.556L104.225,277.866z M104.357,278.85
			l-0.222,0.923l-0.385-1.07l0.175-0.307L104.357,278.85z M103.851,277.567l-0.067,0.215l-0.326-0.529L103.851,277.567z
			 M97.77,267.378l-0.544,1.819l-0.26-0.682L97.77,267.378z M96.822,270.551l-0.077,0.256l-0.278-0.668L96.822,270.551z
			 M87.497,271.559c-0.043-0.022-0.086-0.043-0.128-0.065l-0.382-1.002l0.115-0.181l0.565,0.602L87.497,271.559z M87.869,270.142
			l-0.287-0.588l0.488-0.769l0.133,0.086L87.869,270.142z M86.885,263.089l1.107,0.849l-0.298-0.854l1.489-2.015l-1.673,5.342
			l-1.751-4.195L86.885,263.089z M80.983,267.712l-0.151,0.482c-0.05-0.025-0.1-0.05-0.149-0.076L80.983,267.712z M16.969,256.966
			c-0.004,0.005-0.009,0.01-0.013,0.015l-0.135-0.394l0.164-0.311l0.147,0.207L16.969,256.966z M17.329,255.899l-0.054-0.173
			l0.311-0.589L17.329,255.899z M17.544,252.583l-0.542,2.272l-0.264-0.843L17.544,252.583z M16.744,255.935l-0.06,0.252
			l-0.223-0.651L16.744,255.935z"/>
		
			<linearGradient id="SVGID_00000170276307048722217730000002512861026153756600_" gradientUnits="userSpaceOnUse" x1="150.1487" y1="567.439" x2="154.9777" y2="303.0538">
			<stop  offset="0" style="stop-color:#8D878A"/>
			<stop  offset="1" style="stop-color:#003D86"/>
		</linearGradient>
		
			<polygon style="clip-path:url(#SVGID_00000013883325904035352430000014546659706234194867_);fill:url(#SVGID_00000170276307048722217730000002512861026153756600_);" points="
			155.138,294.322 155.03,293.894 155.16,293.76 155.26,293.872 		"/>
		
			<linearGradient id="SVGID_00000091716120074331153200000010519534096671922581_" gradientUnits="userSpaceOnUse" x1="254.7859" y1="569.3802" x2="259.6156" y2="304.9594">
			<stop  offset="0" style="stop-color:#8D878A"/>
			<stop  offset="1" style="stop-color:#003D86"/>
		</linearGradient>
		
			<polygon style="clip-path:url(#SVGID_00000013883325904035352430000014546659706234194867_);fill:url(#SVGID_00000091716120074331153200000010519534096671922581_);" points="
			258.838,341.027 259.071,341.255 259.005,341.414 		"/>
		
			<linearGradient id="SVGID_00000000905967799077634520000004350339652239087542_" gradientUnits="userSpaceOnUse" x1="242.9167" y1="569.1791" x2="247.7467" y2="304.7425">
			<stop  offset="0" style="stop-color:#8D878A"/>
			<stop  offset="1" style="stop-color:#003D86"/>
		</linearGradient>
		
			<path style="clip-path:url(#SVGID_00000013883325904035352430000014546659706234194867_);fill:url(#SVGID_00000000905967799077634520000004350339652239087542_);" d="
			M247.269,331.112c-0.024-0.017-0.048-0.034-0.072-0.051l0.143-0.266L247.269,331.112z"/>
		
			<linearGradient id="SVGID_00000078035252267855055230000015327939369346603648_" gradientUnits="userSpaceOnUse" x1="134.5069" y1="567.1396" x2="139.3357" y2="302.7674">
			<stop  offset="0" style="stop-color:#8D878A"/>
			<stop  offset="1" style="stop-color:#003D86"/>
		</linearGradient>
		
			<polygon style="clip-path:url(#SVGID_00000013883325904035352430000014546659706234194867_);fill:url(#SVGID_00000078035252267855055230000015327939369346603648_);" points="
			139.601,287.81 139.566,287.743 139.655,287.687 		"/>
		
			<linearGradient id="SVGID_00000026859891085980077470000007326769269336716689_" gradientUnits="userSpaceOnUse" x1="154.4489" y1="567.5073" x2="159.2778" y2="303.1323">
			<stop  offset="0" style="stop-color:#8D878A"/>
			<stop  offset="1" style="stop-color:#003D86"/>
		</linearGradient>
		
			<polygon style="clip-path:url(#SVGID_00000013883325904035352430000014546659706234194867_);fill:url(#SVGID_00000026859891085980077470000007326769269336716689_);" points="
			159.057,311.137 159.16,310.996 159.208,311.051 159.103,311.254 		"/>
		
			<linearGradient id="SVGID_00000166652374954926464000000013834912692131220367_" gradientUnits="userSpaceOnUse" x1="154.237" y1="567.3867" x2="159.0637" y2="303.1311">
			<stop  offset="0" style="stop-color:#8D878A"/>
			<stop  offset="1" style="stop-color:#003D86"/>
		</linearGradient>
		
			<polygon style="clip-path:url(#SVGID_00000013883325904035352430000014546659706234194867_);fill:url(#SVGID_00000166652374954926464000000013834912692131220367_);" points="
			158.967,309.257 158.927,309.16 158.979,309.226 		"/>
		
			<linearGradient id="SVGID_00000051358503421008051560000013282274984078584465_" gradientUnits="userSpaceOnUse" x1="161.8159" y1="567.5915" x2="166.6438" y2="303.2696">
			<stop  offset="0" style="stop-color:#8D878A"/>
			<stop  offset="1" style="stop-color:#003D86"/>
		</linearGradient>
		
			<polygon style="clip-path:url(#SVGID_00000013883325904035352430000014546659706234194867_);fill:url(#SVGID_00000051358503421008051560000013282274984078584465_);" points="
			166.374,316.411 166.301,316.249 166.516,316.072 		"/>
		
			<linearGradient id="SVGID_00000047061998333038996220000000216484215475537807_" gradientUnits="userSpaceOnUse" x1="160.8981" y1="567.6348" x2="165.7271" y2="303.2498">
			<stop  offset="0" style="stop-color:#8D878A"/>
			<stop  offset="1" style="stop-color:#003D86"/>
		</linearGradient>
		
			<polygon style="clip-path:url(#SVGID_00000013883325904035352430000014546659706234194867_);fill:url(#SVGID_00000047061998333038996220000000216484215475537807_);" points="
			165.425,316.27 165.55,316.447 165.508,316.546 		"/>
		
			<linearGradient id="SVGID_00000106112463687154371300000004509446741199488174_" gradientUnits="userSpaceOnUse" x1="165.7975" y1="567.772" x2="170.6275" y2="303.3372">
			<stop  offset="0" style="stop-color:#8D878A"/>
			<stop  offset="1" style="stop-color:#003D86"/>
		</linearGradient>
		
			<polygon style="clip-path:url(#SVGID_00000013883325904035352430000014546659706234194867_);fill:url(#SVGID_00000106112463687154371300000004509446741199488174_);" points="
			170.342,313.925 170.522,314.127 170.451,314.267 		"/>
		
			<linearGradient id="SVGID_00000060009238536801945190000000135774414915749510_" gradientUnits="userSpaceOnUse" x1="166.9009" y1="567.7771" x2="171.7306" y2="303.3581">
			<stop  offset="0" style="stop-color:#8D878A"/>
			<stop  offset="1" style="stop-color:#003D86"/>
		</linearGradient>
		
			<polygon style="clip-path:url(#SVGID_00000013883325904035352430000014546659706234194867_);fill:url(#SVGID_00000060009238536801945190000000135774414915749510_);" points="
			171.467,314.188 171.432,314.085 171.641,313.885 		"/>
		
			<linearGradient id="SVGID_00000084498908989687088370000002375248456250422952_" gradientUnits="userSpaceOnUse" x1="209.172" y1="568.5256" x2="214.0012" y2="304.1315">
			<stop  offset="0" style="stop-color:#8D878A"/>
			<stop  offset="1" style="stop-color:#003D86"/>
		</linearGradient>
		
			<polygon style="clip-path:url(#SVGID_00000013883325904035352430000014546659706234194867_);fill:url(#SVGID_00000084498908989687088370000002375248456250422952_);" points="
			213.845,307.359 214.034,307.65 213.967,307.811 		"/>
		
			<linearGradient id="SVGID_00000078730239364001714920000011459703108977045690_" gradientUnits="userSpaceOnUse" x1="174.7837" y1="568.0271" x2="179.6154" y2="303.4959">
			<stop  offset="0" style="stop-color:#8D878A"/>
			<stop  offset="1" style="stop-color:#003D86"/>
		</linearGradient>
		
			<path style="clip-path:url(#SVGID_00000013883325904035352430000014546659706234194867_);fill:url(#SVGID_00000078730239364001714920000011459703108977045690_);" d="
			M179.4,317.138c-0.022,0.009-0.045,0.018-0.067,0.028l0.04-0.148L179.4,317.138z"/>
		
			<linearGradient id="SVGID_00000131350531756314051590000003470792220332625287_" gradientUnits="userSpaceOnUse" x1="172.5834" y1="567.8226" x2="177.4119" y2="303.4641">
			<stop  offset="0" style="stop-color:#8D878A"/>
			<stop  offset="1" style="stop-color:#003D86"/>
		</linearGradient>
		
			<polygon style="clip-path:url(#SVGID_00000013883325904035352430000014546659706234194867_);fill:url(#SVGID_00000131350531756314051590000003470792220332625287_);" points="
			177.219,312.191 177.18,312.1 177.331,311.978 		"/>
		
			<linearGradient id="SVGID_00000025433046140788233640000005524480378541470639_" gradientUnits="userSpaceOnUse" x1="166.0774" y1="567.725" x2="170.9064" y2="303.3446">
			<stop  offset="0" style="stop-color:#8D878A"/>
			<stop  offset="1" style="stop-color:#003D86"/>
		</linearGradient>
		
			<polygon style="clip-path:url(#SVGID_00000013883325904035352430000014546659706234194867_);fill:url(#SVGID_00000025433046140788233640000005524480378541470639_);" points="
			170.843,312.08 170.791,312.212 170.656,311.816 		"/>
		
			<linearGradient id="SVGID_00000019637970369105601460000003338818073936251046_" gradientUnits="userSpaceOnUse" x1="141.1678" y1="567.2665" x2="145.9967" y2="302.8895">
			<stop  offset="0" style="stop-color:#8D878A"/>
			<stop  offset="1" style="stop-color:#003D86"/>
		</linearGradient>
		
			<polygon style="clip-path:url(#SVGID_00000013883325904035352430000014546659706234194867_);fill:url(#SVGID_00000019637970369105601460000003338818073936251046_);" points="
			146.051,298.81 146.009,298.735 146.14,298.523 		"/>
		
			<linearGradient id="SVGID_00000166649800073746638110000013358578884413112744_" gradientUnits="userSpaceOnUse" x1="138.8513" y1="567.2754" x2="143.6811" y2="302.8482">
			<stop  offset="0" style="stop-color:#8D878A"/>
			<stop  offset="1" style="stop-color:#003D86"/>
		</linearGradient>
		
			<polygon style="clip-path:url(#SVGID_00000013883325904035352430000014546659706234194867_);fill:url(#SVGID_00000166649800073746638110000013358578884413112744_);" points="
			143.864,297.432 143.818,297.55 143.698,297.318 		"/>
		
			<linearGradient id="SVGID_00000134251773571954790800000018405229048578288797_" gradientUnits="userSpaceOnUse" x1="81.453" y1="566.1312" x2="86.2812" y2="301.7934">
			<stop  offset="0" style="stop-color:#8D878A"/>
			<stop  offset="1" style="stop-color:#003D86"/>
		</linearGradient>
		
			<polygon style="clip-path:url(#SVGID_00000013883325904035352430000014546659706234194867_);fill:url(#SVGID_00000134251773571954790800000018405229048578288797_);" points="
			86.811,267.978 86.985,268.089 86.938,268.238 		"/>
		
			<linearGradient id="SVGID_00000046334940423275777540000006761104948834873733_" gradientUnits="userSpaceOnUse" x1="98.3003" y1="566.5119" x2="103.1296" y2="302.1086">
			<stop  offset="0" style="stop-color:#8D878A"/>
			<stop  offset="1" style="stop-color:#003D86"/>
		</linearGradient>
		
			<polygon style="clip-path:url(#SVGID_00000013883325904035352430000014546659706234194867_);fill:url(#SVGID_00000046334940423275777540000006761104948834873733_);" points="
			103.465,277.913 103.675,278.133 103.614,278.328 		"/>
		
			<linearGradient id="SVGID_00000128453451919973086510000004327792420381751718_" gradientUnits="userSpaceOnUse" x1="87.2394" y1="328.245" x2="89.4263" y2="208.515">
			<stop  offset="0" style="stop-color:#8D878A"/>
			<stop  offset="1" style="stop-color:#003D86"/>
		</linearGradient>
		
			<polygon style="clip-path:url(#SVGID_00000013883325904035352430000014546659706234194867_);fill:url(#SVGID_00000128453451919973086510000004327792420381751718_);" points="
			88.332,268.38 88.33,268.375 88.336,268.365 		"/>
		
			<linearGradient id="SVGID_00000070819837128959481650000011866895137913544607_" gradientUnits="userSpaceOnUse" x1="70.8681" y1="565.95" x2="75.6965" y2="301.6012">
			<stop  offset="0" style="stop-color:#8D878A"/>
			<stop  offset="1" style="stop-color:#003D86"/>
		</linearGradient>
		
			<path style="clip-path:url(#SVGID_00000013883325904035352430000014546659706234194867_);fill:url(#SVGID_00000070819837128959481650000011866895137913544607_);" d="
			M76.44,265.734l-0.069,0.208c-0.037-0.019-0.074-0.038-0.111-0.056L76.44,265.734z"/>
		
			<linearGradient id="SVGID_00000075842434353456468230000008341443137252915085_" gradientUnits="userSpaceOnUse" x1="357.7144" y1="571.1949" x2="362.5425" y2="306.863">
			<stop  offset="0" style="stop-color:#8D878A"/>
			<stop  offset="1" style="stop-color:#003D86"/>
		</linearGradient>
		
			<polygon style="clip-path:url(#SVGID_00000013883325904035352430000014546659706234194867_);fill:url(#SVGID_00000075842434353456468230000008341443137252915085_);" points="
			360.762,405.144 360.752,405.168 360.733,405.106 		"/>
		
			<linearGradient id="SVGID_00000090993703628452538350000009444489556045889692_" gradientUnits="userSpaceOnUse" x1="320.5248" y1="570.5344" x2="325.3535" y2="306.1693">
			<stop  offset="0" style="stop-color:#8D878A"/>
			<stop  offset="1" style="stop-color:#003D86"/>
		</linearGradient>
		
			<polygon style="clip-path:url(#SVGID_00000013883325904035352430000014546659706234194867_);fill:url(#SVGID_00000090993703628452538350000009444489556045889692_);" points="
			324.098,369.536 324.29,369.8 324.221,369.944 		"/>
		
			<linearGradient id="SVGID_00000127762060720842795550000014477042917813342392_" gradientUnits="userSpaceOnUse" x1="329.4449" y1="570.6963" x2="334.2736" y2="306.3337">
			<stop  offset="0" style="stop-color:#8D878A"/>
			<stop  offset="1" style="stop-color:#003D86"/>
		</linearGradient>
		
			<polygon style="clip-path:url(#SVGID_00000013883325904035352430000014546659706234194867_);fill:url(#SVGID_00000127762060720842795550000014477042917813342392_);" points="
			332.759,382.185 333.014,382.364 332.967,382.531 		"/>
		
			<linearGradient id="SVGID_00000024710290527597838820000013278484828152112271_" gradientUnits="userSpaceOnUse" x1="330.0504" y1="570.7495" x2="334.8801" y2="306.3276">
			<stop  offset="0" style="stop-color:#8D878A"/>
			<stop  offset="1" style="stop-color:#003D86"/>
		</linearGradient>
		
			<polygon style="clip-path:url(#SVGID_00000013883325904035352430000014546659706234194867_);fill:url(#SVGID_00000024710290527597838820000013278484828152112271_);" points="
			333.593,382.832 333.456,383.346 333.366,383.194 		"/>
		
			<linearGradient id="SVGID_00000077291097674276369480000010995758927710462654_" gradientUnits="userSpaceOnUse" x1="304.1153" y1="570.3042" x2="308.9457" y2="305.8451">
			<stop  offset="0" style="stop-color:#8D878A"/>
			<stop  offset="1" style="stop-color:#003D86"/>
		</linearGradient>
		
			<polygon style="clip-path:url(#SVGID_00000013883325904035352430000014546659706234194867_);fill:url(#SVGID_00000077291097674276369480000010995758927710462654_);" points="
			307.648,375.846 307.687,375.887 307.67,375.916 307.647,375.848 		"/>
		
			<linearGradient id="SVGID_00000060727278372078377780000015615482726443567505_" gradientUnits="userSpaceOnUse" x1="330.7883" y1="570.6019" x2="335.6139" y2="306.4017">
			<stop  offset="0" style="stop-color:#8D878A"/>
			<stop  offset="1" style="stop-color:#003D86"/>
		</linearGradient>
		
			<polygon style="clip-path:url(#SVGID_00000013883325904035352430000014546659706234194867_);fill:url(#SVGID_00000060727278372078377780000015615482726443567505_);" points="
			334.329,377.666 334.309,377.739 334.295,377.7 		"/>
		
			<linearGradient id="SVGID_00000103956475556646611340000008152493180440709540_" gradientUnits="userSpaceOnUse" x1="449.8435" y1="572.9382" x2="454.6732" y2="308.5187">
			<stop  offset="0" style="stop-color:#8D878A"/>
			<stop  offset="1" style="stop-color:#003D86"/>
		</linearGradient>
		
			<polygon style="clip-path:url(#SVGID_00000013883325904035352430000014546659706234194867_);fill:url(#SVGID_00000103956475556646611340000008152493180440709540_);" points="
			453.602,368.805 453.557,368.916 453.54,368.883 		"/>
		
			<linearGradient id="SVGID_00000003102493656430018750000005692520890090055070_" gradientUnits="userSpaceOnUse" x1="453.0039" y1="408.3665" x2="454.3723" y2="333.4497">
			<stop  offset="0" style="stop-color:#8D878A"/>
			<stop  offset="1" style="stop-color:#003D86"/>
		</linearGradient>
		
			<polygon style="clip-path:url(#SVGID_00000013883325904035352430000014546659706234194867_);fill:url(#SVGID_00000003102493656430018750000005692520890090055070_);" points="
			453.691,370.899 453.687,370.908 453.685,370.905 		"/>
		
			<linearGradient id="SVGID_00000002380632675129199420000005909535228061193864_" gradientUnits="userSpaceOnUse" x1="470.4093" y1="573.15" x2="475.2353" y2="308.9316">
			<stop  offset="0" style="stop-color:#8D878A"/>
			<stop  offset="1" style="stop-color:#003D86"/>
		</linearGradient>
		
			<polygon style="clip-path:url(#SVGID_00000013883325904035352430000014546659706234194867_);fill:url(#SVGID_00000002380632675129199420000005909535228061193864_);" points="
			474.366,355.2 474.414,355.23 474.402,355.272 		"/>
		
			<linearGradient id="SVGID_00000008137103891088244340000005394338545804560297_" gradientUnits="userSpaceOnUse" x1="478.0938" y1="573.4207" x2="482.9226" y2="309.044">
			<stop  offset="0" style="stop-color:#8D878A"/>
			<stop  offset="1" style="stop-color:#003D86"/>
		</linearGradient>
		
			<polygon style="clip-path:url(#SVGID_00000013883325904035352430000014546659706234194867_);fill:url(#SVGID_00000008137103891088244340000005394338545804560297_);" points="
			482.255,342.418 482.368,342.533 482.34,342.607 		"/>
		
			<linearGradient id="SVGID_00000175294960373773986890000003040145000383538601_" gradientUnits="userSpaceOnUse" x1="478.3998" y1="573.3961" x2="483.2281" y2="309.0544">
			<stop  offset="0" style="stop-color:#8D878A"/>
			<stop  offset="1" style="stop-color:#003D86"/>
		</linearGradient>
		
			<polygon style="clip-path:url(#SVGID_00000013883325904035352430000014546659706234194867_);fill:url(#SVGID_00000175294960373773986890000003040145000383538601_);" points="
			482.595,344.641 482.646,344.714 482.559,344.923 482.507,344.744 		"/>
		
			<linearGradient id="SVGID_00000012469653092050726540000008962732873891317156_" gradientUnits="userSpaceOnUse" x1="471.4784" y1="573.28" x2="476.3069" y2="308.9275">
			<stop  offset="0" style="stop-color:#8D878A"/>
			<stop  offset="1" style="stop-color:#003D86"/>
		</linearGradient>
		
			<polygon style="clip-path:url(#SVGID_00000013883325904035352430000014546659706234194867_);fill:url(#SVGID_00000012469653092050726540000008962732873891317156_);" points="
			475.436,354.52 475.413,354.463 475.541,354.282 		"/>
		
			<linearGradient id="SVGID_00000013175819562963232040000014997293311165866161_" gradientUnits="userSpaceOnUse" x1="458.0705" y1="573.0659" x2="462.8997" y2="308.6758">
			<stop  offset="0" style="stop-color:#8D878A"/>
			<stop  offset="1" style="stop-color:#003D86"/>
		</linearGradient>
		
			<polygon style="clip-path:url(#SVGID_00000013883325904035352430000014546659706234194867_);fill:url(#SVGID_00000013175819562963232040000014997293311165866161_);" points="
			461.84,366.24 461.813,366.177 461.887,366.094 		"/>
		
			<linearGradient id="SVGID_00000053522108342958700550000012265547350128685441_" gradientUnits="userSpaceOnUse" x1="461.9548" y1="573.114" x2="466.7834" y2="308.7528">
			<stop  offset="0" style="stop-color:#8D878A"/>
			<stop  offset="1" style="stop-color:#003D86"/>
		</linearGradient>
		
			<polygon style="clip-path:url(#SVGID_00000013883325904035352430000014546659706234194867_);fill:url(#SVGID_00000053522108342958700550000012265547350128685441_);" points="
			465.868,363.021 465.813,363.162 465.721,362.74 		"/>
		
			<linearGradient id="SVGID_00000101066961135279198480000014939964100238769822_" gradientUnits="userSpaceOnUse" x1="293.4012" y1="568.0652" x2="320.8376" y2="348.5737">
			<stop  offset="0" style="stop-color:#244679"/>
			<stop  offset="1" style="stop-color:#001945"/>
		</linearGradient>
		
			<path style="clip-path:url(#SVGID_00000013883325904035352430000014546659706234194867_);fill:url(#SVGID_00000101066961135279198480000014939964100238769822_);" d="
			M550.601,506.255c-4.828-1.39-9.783-2.301-14.87-2.583c-17.41-0.963-19.371,3.691-36.474-6.081
			c-12.167-6.952-23.18-16.671-35.756-22.831c-12.177-5.965-14.66-6.307-23.942-16.329c-6.099-6.585-11.713-13.169-19.757-12.642
			c-16.246,1.064-18.193,13.645-35.322,8.28c-10.091-3.16-17.199-8.374-24.811-15.02c-9.726-8.492-16.422-20.728-28.243-25.057
			c-14.423-5.282-16.948-2.152-29.266-11.884c-10.419-8.231-14.833-11.362-26.272-7.883c-9.018,2.743-19.114,8.733-28.872,11.776
			c-45.369,14.149-85.34,41.27-126.174,64.99c-8.803,5.113-16.346,9.844-26.045,10.135c-16.269,0.49-12.687-4.504-25.178,8.073
			c-6.059,6.1-11.983,11.721-17.965,17.055H550.601z"/>
		
			<linearGradient id="SVGID_00000005250557358832479600000010866923611983648404_" gradientUnits="userSpaceOnUse" x1="614.8474" y1="571.8882" x2="596.3003" y2="402.6449">
			<stop  offset="0" style="stop-color:#244679"/>
			<stop  offset="1" style="stop-color:#001945"/>
		</linearGradient>
		
			<path style="clip-path:url(#SVGID_00000013883325904035352430000014546659706234194867_);fill:url(#SVGID_00000005250557358832479600000010866923611983648404_);" d="
			M408.827,506.255h380.252V347.442c-12.961,11.198-27.257,20.375-43.532,21.609l-1.623-5.183l1.285,1.739l-2.022-6.132l1.55,1.308
			l-3.052-10.613l-3.368,10.68l0.885-0.679l0.901-0.699l-1.396,3.343l-2.604-7.896l2.512,2.119l-4.944-17.195l-5.049,16.009
			l-3.146-9.543l2.512,2.119l-4.944-17.195l-5.457,17.303l1.434-1.1l1.46-1.132l-3.758,9.003l2.395-1.535l-2.68,5.479l2.706-2.885
			l-2.408,6.312l-1.323-2.918l0.73,0.734l-1.151-2.174l1.465,1.164l-2.374-5.473l0.705,0.728l-2.023-6.644l-0.067-0.825l-2.805,7.84
			l0.729-0.466l0.528-0.555l-0.287,0.695l-1.081,2.745l-1.498-5.823l1.402,2.309l-2.207-8.144l1.692,1.737l-3.331-14.095
			l-3.484,13.442l-1.421-5.077l-3.56,9.951l0.925-0.591l0.67-0.704l-0.364,0.883l-2.335,5.931l2.186-2.982l-2.819,5.45l2.405-2.294
			l-1.291,2.236c-3.801,0.65-7.884,2.388-12.905,5.636l-2.299-8.934l1.402,2.309l-2.207-8.144l1.692,1.737l-3.331-14.095
			l-3.677,14.184l0.966-0.902l0.984-0.928l-2.532,7.38l1.614-1.258l-1.806,4.492l1.823-2.365l-3.041,9.7l1.752-2.472l-1.698,4.963
			l-0.806-1.876l0.947,0.987l0,0l0,0l-2.807-10.123l-3.766,10.625l0.978-0.631l0.708-0.752l-0.385,0.943l-1.932,4.952l-0.645-2.138
			l0.331,0.336l-0.453-0.863l-0.076-0.95l-0.17,0.48l-0.846-1.614l1.968,1.578l-3.188-7.417l0.947,0.987l-2.806-10.123
			l-3.766,10.625l0.978-0.631l0.708-0.753l-0.385,0.943l-1.453,3.724l-2.129-5.543l-3.864,9.173l1.015-0.583l1.034-0.6l-2.661,4.773
			l1.696-0.814l-1.898,2.905l1.916-1.529l-2.385,4.683l-1.288-2.968l1.145,1.182l-3.392-12.121l-3.36,9.391l-1.813-7.672
			l-2.626,10.133l0.69-0.644l0.703-0.663l-1.809,5.272l1.153-0.899l-1.29,3.209l1.302-1.689l-1.727,5.511
			c-4.482,2.489-8.002,5.651-11.218,9.05l-0.045-0.447l-0.156,0.659c-2.463,2.62-4.757,5.374-7.175,8.067l-3.017-8.512
			l-2.806,10.123l0.947-0.987l-1.522,3.54l-3.458-7.198l3.121,2.321l-2.54-4.913l1.793,1.675l-3.112-6.57l1.865,1.602l-1.848-3.043
			l1.651,0.852l-2.591-4.999l1.006,0.629l0.989,0.611l-3.762-9.608l-3.409,9.548l1.732-1.177l-2.259,5.517l1.435-1.564l-2.258,5.808
			l-2.141-8.261l-3.331,14.095l1.692-1.737l-2.207,8.144l1.402-2.309l-1.236,4.802l-1.879-5.994l1.387,1.799l-1.374-3.418
			l1.228,0.958l-1.927-5.616l0.748,0.706l0.735,0.686l-2.798-10.793l-2.535,10.725l1.288-1.322l-1.68,6.197l1.067-1.757
			l-1.272,4.943l-0.358-0.909l-0.395-1.262l0.331,0.349l0.729,0.466l-2.364-6.607l1.197,1.619l-3.276-9.936l2.512,2.119
			l-4.944-17.195l-4.742,15.036l-6.441-19.899l-5.921,20.065l3.008-2.473l-3.924,11.594l2.493-3.287l-2.456,7.644l-2.606-5.328
			l2.395,1.535l-3.758-9.003l1.46,1.132l1.434,1.1l-5.457-17.303l-4.944,17.195l2.512-2.119l-3.276,9.935l2.082-2.817l-4.776,15.252
			l3.678-5.796l-2.227,8.473l1.996-1.607l-3.318,6.332c-7.783-1.942-12.106-2.629-23.488,8.054
			c-1.252,1.175-2.507,2.502-3.776,3.885l-1.076-4.048l1.661,2.649l-2.615-9.343l2.005,1.993l-3.946-16.17l-4.356,16.272
			l1.145-1.035l1.165-1.065l-2.564,7.234l-1.746-5.392l2.16,2.713l-2.139-5.153l1.912,1.444l-3-8.466l1.165,1.065l1.145,1.035
			l-4.356-16.272l-3.947,16.17l2.005-1.993l-2.615,9.343l1.661-2.649l-2.926,11.008l-1.598-5.592l1.327,2.456l-1.755-7.021
			l2.571,2.925l-2.25-5.354l1.356,1.377l-3.001-5.245l2.544,2.449l-2.983-5.819l2.313,3.184l-2.471-6.333l-0.385-0.942l0.708,0.752
			l0.978,0.631l-3.767-10.625l-2.806,10.123l0.947-0.987l-3.188,7.417l1.968-1.578l-1.546,2.947l0.504-0.512l0.476-0.483
			l-2.819,6.278l2.647-3.78l-2.573,8.691l1.276-1.355l-1.384,4.057l1.455-2.385l-2.97,9.644l2.287-4.055l-1.485,6.226l1.54-2.915
			l-2.546,7.54l-2.995-6.259l1.261,0.853l1.239,0.829l-4.714-13.037l-4.271,12.955l2.17-1.597l-2.662,7.042l-5.2-14.381
			l-5.331,16.17l2.708-1.993l-3.532,9.343l2.244-2.649l-2.539,7.073l-2.87-11.758l-4.356,16.272l1.145-1.035l1.165-1.065
			l-2.444,6.896C442.09,484.12,425.377,495.714,408.827,506.255z M738.818,366.888l-0.168-0.537l0.628-0.67L738.818,366.888z
			 M738.954,364.277l0.127,0.172l-0.626,1.281l-0.295-0.943L738.954,364.277z M738.406,363.536l-0.365,0.874l-0.743-2.373
			L738.406,363.536z M727.941,363.538l0.173-0.111l0.633,0.997l-0.373,0.762L727.941,363.538z M728.911,367.231l-0.275-1.045
			l0.732-0.781l0.149,0.235L728.911,367.231z M728.575,356.004l-0.36,1.142l1.434-1.1l1.46-1.132l-2.27,5.437l-2.168-6.923
			L728.575,356.004z M716.584,363.078l-0.112,0.294c-0.15-0.054-0.3-0.107-0.449-0.16l-0.481-1.608L716.584,363.078z
			 M710.746,357.109l-0.716,1.383l-0.078-0.301L710.746,357.109z M709.535,360.439l0.188,0.361l-0.141,0.244
			c-0.077-0.023-0.154-0.046-0.231-0.069l-0.065-0.3L709.535,360.439z M709.278,359.946l-0.105,0.203l-0.149-0.692L709.278,359.946z
			 M703.13,346.796l0.983-0.928l-1.135,3.31l-0.497-1.776L703.13,346.796z M683.143,365.853c-0.146,0.097-0.291,0.191-0.439,0.29
			l-0.417-1.932L683.143,365.853z M675.755,369.923l-0.909,2.859c-0.144,0.144-0.287,0.288-0.431,0.432l-0.518-1.204
			L675.755,369.923z M667.386,377.406l-0.092-0.206l0.467-0.45L667.386,377.406z M668.2,373.38l-1.397,2.726l-0.223-0.496
			L668.2,373.38z M658.864,368.792l-0.867,1.691l-0.125-0.326L658.864,368.792z M658.141,372.435l0.094,0.059l-0.438,0.765
			l-0.152-0.346L658.141,372.435z M651.922,384.298l-0.304,0.587l-0.126-0.29L651.922,384.298z M651.324,381.822l-0.581,1.045
			l-0.17-0.393L651.324,381.822z M644.246,378.989l-0.287,0.695l-0.074-0.315L644.246,378.989z M643.389,379.889l0.37-0.389
			l0.193,0.198l-0.173,0.418l-0.342,0.869l-0.26-0.961L643.389,379.889z M612.837,411.718l-0.347,0.808l-1.404-2.279
			L612.837,411.718z M612.258,413.064l-0.289,0.672l-1.002-1.652L612.258,413.064z M601.871,407.685l-0.167-0.486l0.723-0.395
			L601.871,407.685z M602.332,404.657l-0.07-0.271l0.427-0.277L602.332,404.657z M602.848,400.297l-0.917,2.811l-0.321-1.239
			L602.848,400.297z M601.682,405.656l-0.332,0.51l-0.418-1.218L601.682,405.656z M595.758,419.762l-0.406,1.881l-0.359-1.13
			l0.53-1.016L595.758,419.762z M595.38,416.156l-0.167,0.649l-0.585-1.71L595.38,416.156z M594.745,418.625l-0.158,0.614
			l-0.392-1.231L594.745,418.625z M588.678,416.195l-0.047,0.215l-0.333-0.577L588.678,416.195z M585.972,404.081l-0.021,0.253
			l-0.064,0.21l-0.313-1L585.972,404.081z M575.721,406.544l-0.285-0.728l0.381,0.395L575.721,406.544z M576.155,404.158
			l-0.688-1.37l0.999,0.624L576.155,404.158z M575.583,395.395l1.566,1.171l-0.658,2.088l1.434-1.1l1.46-1.132l-1.58,3.785
			l-0.078-0.635l-0.617,2.147l-3.275-7.644L575.583,395.395z M562.826,421.877l-0.423-1.094l0.575,0.531L562.826,421.877z
			 M563.564,423.785l-0.404-1.043l0.737-0.579l0.36,0.332L563.564,423.785z M565.107,413.421l-0.596,2.208l-0.311-0.816
			L565.107,413.421z M564.11,417.115l-0.176,0.651l-0.646-1.553l0.019-0.029L564.11,417.115z M563.948,410.084l-0.709,2.207
			l-1.905-4.994L563.948,410.084z M552.099,425.533l-0.997,1.962c-0.475-0.117-0.937-0.233-1.386-0.345L552.099,425.533z
			 M514.424,438.862l-0.163-0.505l0.551-0.692L514.424,438.862z M514.791,435.225l-0.868,2.09l-0.373-1.153L514.791,435.225z
			 M513.662,439.109l0.473,0.646l-0.257,0.793l-0.419-1.185L513.662,439.109z M512.978,443.33l-0.177,0.547l-0.378-1.15
			L512.978,443.33z M502.316,443.062l0.653,0.799l-0.062,0.279l0.164-0.155l0.535,0.655l-0.582,1.307L502.316,443.062z
			 M502.305,441.903l0.913,0.842l-0.118,0.529L502.305,441.903z M503.612,448.551v-0.207l-0.14-0.57l0.725-0.58L503.612,448.551z
			 M503.612,444.626v-0.469l-0.256-0.441l1.144-1.086L503.612,444.626z M502.83,439.617l0.309,0.435l-0.189-0.659l1.734-3.22
			l-1.328,5.953l-0.847-1.915L502.83,439.617z M502.431,439.056l-0.163,0.612l-0.987-2.231L502.431,439.056z M488.343,456.307
			l1.485-0.804l-1.19,1.479L488.343,456.307z M491.711,455.319l-0.227,0.673c-0.665,0.222-1.32,0.464-1.959,0.736L491.711,455.319z
			 M486.189,449.375l1.709,0.955l-0.314,0.931l0.617-0.762l0.057,0.032l-0.031-0.065l1.493-1.843l-1.234,4.369l0,0v0l1.569-1.62
			l-2.161,3.909l-1.728-3.952l2.337,2.173L486.189,449.375z M477.352,460.765l-0.313-0.717l0.413,0.384L477.352,460.765z
			 M477.351,458.116l0.18-0.248l0.594,0.332l-0.254,0.843L477.351,458.116z M478.007,462.261l-0.164-0.375l0.668-0.469l0.002,0.002
			L478.007,462.261z M479.664,449.116l-1.115,3.105l-0.453-1.254L479.664,449.116z M477.171,451.651l1.276,0.854l-0.828,2.306
			l-2.022-4.225L477.171,451.651z M467.74,466.177l-0.504,1.672l-0.179-0.733L467.74,466.177z M466.528,467.842l0.546,0.543
			l-0.155,0.513c-0.249,0.147-0.499,0.288-0.748,0.436l-0.203-0.724L466.528,467.842z"/>
		
			<linearGradient id="SVGID_00000123417737080416645810000000745082913968566404_" gradientUnits="userSpaceOnUse" x1="492.7129" y1="585.2701" x2="474.1662" y2="416.0304">
			<stop  offset="0" style="stop-color:#244679"/>
			<stop  offset="1" style="stop-color:#001945"/>
		</linearGradient>
		
			<polygon style="clip-path:url(#SVGID_00000013883325904035352430000014546659706234194867_);fill:url(#SVGID_00000123417737080416645810000000745082913968566404_);" points="
			478.556,456.769 478.467,456.582 478.716,456.24 		"/>
		
			<linearGradient id="SVGID_00000171680205785025263720000006111335918184368047_" gradientUnits="userSpaceOnUse" x1="528.8742" y1="581.3082" x2="510.3273" y2="412.067">
			<stop  offset="0" style="stop-color:#244679"/>
			<stop  offset="1" style="stop-color:#001945"/>
		</linearGradient>
		
			<polygon style="clip-path:url(#SVGID_00000013883325904035352430000014546659706234194867_);fill:url(#SVGID_00000171680205785025263720000006111335918184368047_);" points="
			513.097,438.336 513.354,438.687 513.282,438.86 		"/>
		
			<linearGradient id="SVGID_00000019640913316165687380000009057681202208133791_" gradientUnits="userSpaceOnUse" x1="478.626" y1="586.7744" x2="460.0853" y2="417.59">
			<stop  offset="0" style="stop-color:#244679"/>
			<stop  offset="1" style="stop-color:#001945"/>
		</linearGradient>
		
			<polygon style="clip-path:url(#SVGID_00000013883325904035352430000014546659706234194867_);fill:url(#SVGID_00000019640913316165687380000009057681202208133791_);" points="
			465.5,466.82 465.482,466.87 465.456,466.776 		"/>
		
			<linearGradient id="SVGID_00000180367715257963675070000016331391654455618489_" gradientUnits="userSpaceOnUse" x1="749.1241" y1="557.7222" x2="731.8336" y2="399.9459">
			<stop  offset="0" style="stop-color:#244679"/>
			<stop  offset="1" style="stop-color:#001945"/>
		</linearGradient>
		
			<polygon style="clip-path:url(#SVGID_00000013883325904035352430000014546659706234194867_);fill:url(#SVGID_00000180367715257963675070000016331391654455618489_);" points="
			727.769,362.883 727.777,362.896 727.774,362.903 		"/>
		
			<linearGradient id="SVGID_00000017503085630574158970000006835824565507455397_" gradientUnits="userSpaceOnUse" x1="750.9464" y1="556.9406" x2="732.4023" y2="387.7254">
			<stop  offset="0" style="stop-color:#244679"/>
			<stop  offset="1" style="stop-color:#001945"/>
		</linearGradient>
		
			<polygon style="clip-path:url(#SVGID_00000013883325904035352430000014546659706234194867_);fill:url(#SVGID_00000017503085630574158970000006835824565507455397_);" points="
			729.58,362.719 729.52,362.526 729.746,362.381 		"/>
		
			<linearGradient id="SVGID_00000116196648480783785070000017897322397501730693_" gradientUnits="userSpaceOnUse" x1="732.2257" y1="559.0087" x2="713.6801" y2="389.779">
			<stop  offset="0" style="stop-color:#244679"/>
			<stop  offset="1" style="stop-color:#001945"/>
		</linearGradient>
		
			<polygon style="clip-path:url(#SVGID_00000013883325904035352430000014546659706234194867_);fill:url(#SVGID_00000116196648480783785070000017897322397501730693_);" points="
			710.346,359.721 710.334,359.676 710.419,359.595 		"/>
		
			<linearGradient id="SVGID_00000168112267275099943870000005219392355513694118_" gradientUnits="userSpaceOnUse" x1="760.2298" y1="555.9658" x2="741.6818" y2="386.7139">
			<stop  offset="0" style="stop-color:#244679"/>
			<stop  offset="1" style="stop-color:#001945"/>
		</linearGradient>
		
			<polygon style="clip-path:url(#SVGID_00000013883325904035352430000014546659706234194867_);fill:url(#SVGID_00000168112267275099943870000005219392355513694118_);" points="
			739.262,364.08 739.18,364.247 739.149,364.153 		"/>
		
			<linearGradient id="SVGID_00000043431902323226301420000007361760153858451894_" gradientUnits="userSpaceOnUse" x1="678.3812" y1="564.9536" x2="659.8314" y2="395.6861">
			<stop  offset="0" style="stop-color:#244679"/>
			<stop  offset="1" style="stop-color:#001945"/>
		</linearGradient>
		
			<polygon style="clip-path:url(#SVGID_00000013883325904035352430000014546659706234194867_);fill:url(#SVGID_00000043431902323226301420000007361760153858451894_);" points="
			657.162,371.816 657.277,371.888 657.232,371.975 		"/>
		
			<linearGradient id="SVGID_00000034067256261946266730000001346267581370960555_" gradientUnits="userSpaceOnUse" x1="687.5981" y1="563.8732" x2="669.0552" y2="394.6679">
			<stop  offset="0" style="stop-color:#244679"/>
			<stop  offset="1" style="stop-color:#001945"/>
		</linearGradient>
		
			<polygon style="clip-path:url(#SVGID_00000013883325904035352430000014546659706234194867_);fill:url(#SVGID_00000034067256261946266730000001346267581370960555_);" points="
			667.117,377.473 667.244,377.654 667.197,377.737 		"/>
		
			<linearGradient id="SVGID_00000133518559418595645260000017402906390623115667_" gradientUnits="userSpaceOnUse" x1="686.1851" y1="564.015" x2="667.6433" y2="394.82">
			<stop  offset="0" style="stop-color:#244679"/>
			<stop  offset="1" style="stop-color:#001945"/>
		</linearGradient>
		
			<polygon style="clip-path:url(#SVGID_00000013883325904035352430000014546659706234194867_);fill:url(#SVGID_00000133518559418595645260000017402906390623115667_);" points="
			665.251,372.506 665.222,372.586 665.132,372.386 		"/>
		
			<linearGradient id="SVGID_00000162317025944510649220000000991922748376375688_" gradientUnits="userSpaceOnUse" x1="663.4442" y1="566.5714" x2="644.8962" y2="397.3203">
			<stop  offset="0" style="stop-color:#244679"/>
			<stop  offset="1" style="stop-color:#001945"/>
		</linearGradient>
		
			<polygon style="clip-path:url(#SVGID_00000013883325904035352430000014546659706234194867_);fill:url(#SVGID_00000162317025944510649220000000991922748376375688_);" points="
			642.924,378.643 642.855,378.835 642.756,378.471 		"/>
		
			<linearGradient id="SVGID_00000062902854481103475390000002258975614317853827_" gradientUnits="userSpaceOnUse" x1="636.217" y1="569.4927" x2="617.676" y2="400.305">
			<stop  offset="0" style="stop-color:#244679"/>
			<stop  offset="1" style="stop-color:#001945"/>
		</linearGradient>
		
			<path style="clip-path:url(#SVGID_00000013883325904035352430000014546659706234194867_);fill:url(#SVGID_00000062902854481103475390000002258975614317853827_);" d="
			M618.59,408.079c-0.018,0.02-0.037,0.04-0.055,0.06l-0.086-0.209L618.59,408.079z"/>
		
			<linearGradient id="SVGID_00000173882723455647709840000007244474805500775814_" gradientUnits="userSpaceOnUse" x1="612.7761" y1="572.1396" x2="594.2261" y2="402.8698">
			<stop  offset="0" style="stop-color:#244679"/>
			<stop  offset="1" style="stop-color:#001945"/>
		</linearGradient>
		
			<polygon style="clip-path:url(#SVGID_00000013883325904035352430000014546659706234194867_);fill:url(#SVGID_00000173882723455647709840000007244474805500775814_);" points="
			595.938,418.926 595.891,418.789 596.022,418.538 		"/>
		
			<linearGradient id="SVGID_00000060028384478678606010000004856031611226386816_" gradientUnits="userSpaceOnUse" x1="606.5505" y1="572.7997" x2="588.0031" y2="403.5541">
			<stop  offset="0" style="stop-color:#244679"/>
			<stop  offset="1" style="stop-color:#001945"/>
		</linearGradient>
		
			<polygon style="clip-path:url(#SVGID_00000013883325904035352430000014546659706234194867_);fill:url(#SVGID_00000060028384478678606010000004856031611226386816_);" points="
			589.225,413.66 589.107,414.206 589.036,414.024 		"/>
		
			<linearGradient id="SVGID_00000026126843863777467160000013146341062383753905_" gradientUnits="userSpaceOnUse" x1="148.9146" y1="642.1639" x2="190.646" y2="418.4378">
			<stop  offset="0" style="stop-color:#203E6B"/>
			<stop  offset="1" style="stop-color:#001437"/>
		</linearGradient>
		
			<path style="clip-path:url(#SVGID_00000013883325904035352430000014546659706234194867_);fill:url(#SVGID_00000026126843863777467160000013146341062383753905_);" d="
			M390.171,506.255c-5.899-2.221-11.826-4.425-17.762-6.637l-1.869-4.135l4.721,4.18l-6.456-11.077l4.471,2.645l-4.976-8.281
			l2.657,1.866l-2.964-9.837l4.896,6.73L366.532,464l2.771,3.27l-4.361-11.535l3.344,2.461l-6.581-19.963l-6.42,17.754l-3.287-8.694
			l2.679,1.971l-5.273-15.994l-5.82,16.096l1.53-1.023l1.557-1.053l-4.008,8.374l2.554-1.428l-2.858,5.097l2.886-2.683
			l-4.814,11.007l2.773-2.805l-3.65,7.647l-2.794-6.221l0.588,0.597l0.622,0.632l-1.908-3.638l2.429,1.948l-3.936-9.157l1.169,1.219
			l-3.465-12.498l-4.65,13.117l1.208-0.779l0.875-0.929l-0.476,1.164l-1.647,4.221l-4.587-10.63l3.31,2.645l-3.684-8.281
			l1.967,1.866l-2.194-9.837l3.625,6.73l-4.707-17.707l2.051,3.27l-3.229-11.535l2.476,2.46l-4.872-19.963l-5.378,20.089
			l1.414-1.277l1.439-1.314l-3.703,10.452l2.36-1.782l-2.641,6.362l2.667-3.349l-2.156,6.658l-3.165-8.932l1.439,1.314l1.413,1.278
			l-5.378-20.089l-4.872,19.963l2.476-2.46l-3.229,11.535l2.051-3.27l-4.707,17.707l3.625-6.73l-2.194,9.837l1.967-1.866
			l-3.684,8.281l3.31-2.645l-3.159,7.32c-0.86-0.44-1.728-0.869-2.583-1.316c-10.853-5.674-20.097-12.676-29.126-19.652
			l-3.538-6.959l4.147,2.812l-4.615-8.806l2.464,1.985l-2.749-10.46l4.541,7.156l-5.896-18.83l2.57,3.477l-4.045-12.266l3.101,2.616
			l-6.104-21.228l-6.267,19.871l-3.357-10.448l3.077,4.058l-4.844-14.314l3.714,3.053l-7.31-24.772l-7.952,24.567l-5.854-18.563
			l-6.104,21.228l3.101-2.616l-4.045,12.266l2.57-3.477l-3.591,11.469l-1.611-6.261l1.317,2.169l-2.074-7.651l1.59,1.632
			l-3.129-13.241l-3.454,13.325l0.908-0.847l0.924-0.872l-2.378,6.933l1.516-1.182l-1.696,4.22l1.713-2.221l-2.32,7.4l-1.526-5.928
			l1.731,2.851l-2.725-10.055l2.089,2.145l-4.112-17.401l-2.643,10.198l-2.788-7.171l1.772,1.931l-2.788-6.811l2.138,1.453
			l-4.208-11.787l-4.645,11.862l1.221-0.754l1.242-0.776l-3.198,6.171l2.038-1.052l-2.281,3.756l2.303-1.978l-3.842,8.112
			l2.213-2.068l-3.135,6.066l3.854-2.865l-4.747,9.881l2.827-2.375l-2.469,4.007l-2.034-7.904l1.237,2.036l-1.947-7.183l1.493,1.532
			l-2.938-12.431l-0.188,1.863l-3.054,10.647l0.852-0.796l0.867-0.818l-2.233,6.508l1.423-1.11l-1.592,3.961l1.608-2.085
			l-2.682,8.555l1.545-2.18l-1.51,4.414c-3.458-0.905-7.148-2.361-11.307-4.729c-3.806-2.167-7.57-4.427-11.315-6.721l-2.616-9.071
			l1.98,3.63l-2.618-10.378l3.836,4.323l-3.357-7.914l2.024,2.036l-4.477-7.753l3.795,3.621l-4.45-8.602l3.45,4.706l-3.686-9.361
			l-0.575-1.393l1.057,1.112l1.46,0.933l-5.619-15.706l-4.187,14.964l1.413-1.459l-1.59,3.664l-2.945-5.781l2.365,1.888
			l-2.343-3.586l2.093,1.005l-3.285-5.892l1.276,0.741l1.254,0.72l-4.77-11.325l-4.322,11.254l2.196-1.387l-2.467,5.602
			l-3.278-9.248l-1.775,6.401l-2.888-7.403l-0.476-1.164l0.875,0.929l1.208,0.779l-4.65-13.117l-0.111,1.381l-3.354,11.117l0,0v0
			l1.169-1.219l-3.936,9.157l2.429-1.948l-1.908,3.638l0.622-0.632l0.588-0.597l-1.809,4.029l-3.194-10.044l3.766,4.23l-3.064-8.955
			l2.163,3.052l-3.754-11.975l2.25,2.919l-2.229-5.545l1.992,1.554l-3.126-9.111l1.214,1.146l1.193,1.114l-4.539-17.511
			l-4.112,17.401l2.089-2.145l-2.725,10.055l1.731-2.851l-3.972,15.435l3.059-5.866l-1.852,8.575l1.66-1.627l-2.329,5.408
			c-3.323-2.672-6.553-4.565-9.533-4.905c-1.372-0.157-2.802,0.093-4.269,0.61l-1.084-3.76l1.549,2.839l-2.048-8.117l3.001,3.382
			l-2.626-6.19l1.583,1.593l-3.502-6.064l2.969,2.832l-3.481-6.728l2.699,3.681l-2.883-7.322l-0.45-1.09l0.827,0.87l1.142,0.73
			l-4.395-12.285l-3.275,11.705l1.105-1.141l-3.721,8.576l2.296-1.824l-1.804,3.407l1.144-1.151l-1.066,2.353l-0.285-0.903
			l-1.204,4.189l-0.735,1.621l0.453-0.641l-1.118,3.888l-1.987-4.683l1.247,1.255l-2.759-4.778l2.339,2.231l-2.742-5.301l2.126,2.9
			l-2.271-5.769l-0.354-0.859l0.651,0.685l0.899,0.575l-3.463-9.679l-0.083,1.019l-2.498,8.203l0.871-0.899l-2.931,6.757
			l1.809-1.437l-1.421,2.685l0.901-0.906l-2.252,4.969l-2.782-8.821l-6.104,21.228l3.101-2.617l-2.592,7.862
			c-2.472-1.174-4.821-2.419-6.76-3.377c-14.305-7.07-18.259-13.819-35.768-23.787c-7.859-4.475-13.846-9.88-17.638-10.067v177.266
			H390.171z M354.442,462.71l0.307,0.422l-0.111,0.231L354.442,462.71z M355.318,470.144l-0.625-1.04l0.003-0.003l0.825,0.579
			L355.318,470.144z M355.172,465.13l0.733-0.41l0.222,0.306l-0.642,1.145L355.172,465.13z M356.126,468.297l-0.123-0.41l0.51-0.474
			L356.126,468.297z M356.349,457.045l1.943-1.314l-2.496,5.216l-1.022-2.848L356.349,457.045z M355.208,456.2l-0.56,1.548
			l-1.376-3.833L355.208,456.2z M338.736,481.293l-0.25-0.811l0.353,0.578L338.736,481.293z M338.575,478.417l0.977,1.038
			l-0.352,0.794L338.575,478.417z M338.924,481.903l0.276-0.251l0.624,1.022l-0.43,0.756L338.924,481.903z M339.565,481.319
			l2.133-1.941l-1.748,3.072L339.565,481.319z M340.084,485.668l-0.426-1.383l2.223-1.827L340.084,485.668z M339.398,472.823
			l-0.123,0.258l0.194-0.156l0.772,1.102l-0.568-1.266l4.432-3.568l-4.306,9.707l-2.825-9.54L339.398,472.823z M325.771,478.072
			l-0.926-2.025l0.027-0.031l1.077,1.341L325.771,478.072z M325.107,465.675l1.229,1.403l-0.404,0.788L325.107,465.675z
			 M326.362,475.71l-0.37-0.966l0.245-0.279l0.334,0.406L326.362,475.71z M326.519,469.426l-0.425-1.13l0.71-0.684l0.455,0.52
			L326.519,469.426z M327.418,467.854l-0.211-0.63l1.273-1.225L327.418,467.854z M329.021,461.839l-2.188,4.269l-0.288-0.86
			L329.021,461.839z M327.512,462.32l-1.047,2.685l-2.197-6.564L327.512,462.32z M312.828,446.028l-0.466,1.419l-0.218-0.675
			L312.828,446.028z M311.996,440.607l-0.229,0.647l-0.089-0.213L311.996,440.607z M311.031,443.337l-0.317-0.979l0.584-0.798
			l0.25,0.314L311.031,443.337z M311.436,437.923l-0.461,1.423l-1.071-2.58L311.436,437.923z M310.559,440.633l-0.202,0.623
			l-0.478-1.477L310.559,440.633z M299.494,467.849l-0.394,1.177c-0.138-0.07-0.276-0.141-0.414-0.211L299.494,467.849z
			 M249.366,422.04l-0.854-1.588l0.223-0.238l1.021,0.802L249.366,422.04z M249.35,415.645l1.561-1l0.012,0.018l-1.184,2.421
			L249.35,415.645z M250.367,419.415l-0.197-0.731l0.802-0.855L250.367,419.415z M250.82,406.804l1.802-1.398l-1.982,4.749
			l-0.828-2.578L250.82,406.804z M249.604,412.638l-0.647,1.55l-1.171-4.342L249.604,412.638z M232.197,402.295l-0.387-1.014
			l0.583,0.622L232.197,402.295z M232.071,398.546l0.254-0.159l1.387,0.889l-0.65,1.296L232.071,398.546z M233.242,405.035
			l-0.742-1.945l0.51-0.53l0.847,0.903L233.242,405.035z M234.132,402.761l-0.443-0.906l1.344-1.397L234.132,402.761z
			 M233.762,397.49l1.233-0.77l-0.849,1.691L233.762,397.49z M231.961,390.256l1.771,1.359l-0.813-2.577l1.933-1.445l2.158-1.631
			l-4.083,9.53l-2.769-6.633L231.961,390.256z M219.026,417.451l-0.871-2.022l1.115,1.093L219.026,417.451z M219.944,419.581
			l-0.329-0.763l1.261-1.016L219.944,419.581z M221.162,409.326l-1.103,4.197l-0.45-1.749L221.162,409.326z M219.198,412.421
			l0.765,1.467l-0.628,2.39l-0.656-3.038L219.198,412.421z M218.382,410.857l-0.129,0.413l-0.244-1.128L218.382,410.857z
			 M211.391,417.029l-0.195-0.758l0.679-0.762L211.391,417.029z M211.34,411.914l-0.722,2.111l-0.206-0.801L211.34,411.914z
			 M210.236,417.349l0.154,0.295c-0.118-0.021-0.24-0.047-0.357-0.067L210.236,417.349z M202.398,402.766l-0.686-1.088l0.892,0.488
			L202.398,402.766z M201.388,398.35l0.527,0.342l-0.087,0.335L201.388,398.35z M203.557,399.387l-0.516,1.504l-0.41-0.63
			L203.557,399.387z M202.721,395.585l-0.396,1.53l-1.132-3.471L202.721,395.585z M188.278,416.084l-0.231-0.537l1.101-0.855
			L188.278,416.084z M191.167,408.197l-2.15,3.545l-0.412-1.601L191.167,408.197z M188.831,412.05l-0.717,1.183l-0.943-4.367
			L188.831,412.05z M181.41,413.905l-0.451,1.417c-0.222-0.049-0.447-0.105-0.67-0.159L181.41,413.905z M155.395,402.642
			c-0.139-0.085-0.277-0.171-0.415-0.256l-0.455-0.958L155.395,402.642z M141.987,376.565l-0.16-0.309l0.557-0.443L141.987,376.565z
			 M142.271,371.642l-0.21,0.485l-0.717-1.29L142.271,371.642z M141.136,374.258l-0.156,0.358l-0.374-0.725L141.136,374.258z
			 M133.092,363.142l-0.951,2.274l-0.342-0.964L133.092,363.142z M131.537,366.86l-0.166,0.396l-0.413-1.01L131.537,366.86z
			 M125.793,364.205l-1.329-2.322l1.557,1.499L125.793,364.205z M126.577,361.377l-0.274,0.989l-2.38-4.643L126.577,361.377z
			 M115.971,365.244l-0.915,3.089l-0.39-1.226L115.971,365.244z M113.865,368.253l0.884,1.121l-0.343,1.159l-0.787-1.929
			L113.865,368.253z M113.6,367.916l-0.137,0.306l-0.406-0.994L113.6,367.916z M114.018,371.842l-0.253,0.854l-0.85-2.119
			L114.018,371.842z M102.611,360.953l-0.671,1.607c-0.212-0.182-0.423-0.354-0.634-0.53L102.611,360.953z M75.639,343.983
			l-0.339,1.133l-0.143-0.452L75.639,343.983z M70.95,359.143l-0.73-1.537l0.847,1.181L70.95,359.143z M71.477,360.251l-0.132-0.279
			l0.291-0.393l0.036,0.051L71.477,360.251z M72.636,354.032l-1.294,3.923l-1.346-4.666l0.919,1.685l-0.194,0.673l0.384-0.324
			l0.111,0.203l-0.062-0.244L72.636,354.032z M71.863,351.677l-0.862,2.996l-1.398-5.543L71.863,351.677z M62.061,345.875
			l-1.432,4.791l-0.603-1.912L62.061,345.875z"/>
		
			<linearGradient id="SVGID_00000073706839838959892630000000926888469242394263_" gradientUnits="userSpaceOnUse" x1="145.0133" y1="641.457" x2="186.7484" y2="417.7113">
			<stop  offset="0" style="stop-color:#203E6B"/>
			<stop  offset="1" style="stop-color:#001437"/>
		</linearGradient>
		
			<polygon style="clip-path:url(#SVGID_00000013883325904035352430000014546659706234194867_);fill:url(#SVGID_00000073706839838959892630000000926888469242394263_);" points="
			187.308,413.83 187.586,414.103 187.492,414.258 		"/>
		
			<linearGradient id="SVGID_00000092445174315457312620000007980656748241735056_" gradientUnits="userSpaceOnUse" x1="204.8217" y1="652.597" x2="246.5539" y2="428.8667">
			<stop  offset="0" style="stop-color:#203E6B"/>
			<stop  offset="1" style="stop-color:#001437"/>
		</linearGradient>
		
			<polygon style="clip-path:url(#SVGID_00000013883325904035352430000014546659706234194867_);fill:url(#SVGID_00000092445174315457312620000007980656748241735056_);" points="
			248.127,419.737 248.353,419.914 248.291,420.042 		"/>
		
			<linearGradient id="SVGID_00000065781704930035731140000017884545065882253730_" gradientUnits="userSpaceOnUse" x1="175.9452" y1="647.205" x2="217.6764" y2="423.4799">
			<stop  offset="0" style="stop-color:#203E6B"/>
			<stop  offset="1" style="stop-color:#001437"/>
		</linearGradient>
		
			<polygon style="clip-path:url(#SVGID_00000013883325904035352430000014546659706234194867_);fill:url(#SVGID_00000065781704930035731140000017884545065882253730_);" points="
			218.506,419.431 218.396,419.167 218.543,419.289 		"/>
		
			<linearGradient id="SVGID_00000051363350202574385190000002456513061283392930_" gradientUnits="userSpaceOnUse" x1="176.4149" y1="647.2418" x2="218.1371" y2="423.565">
			<stop  offset="0" style="stop-color:#203E6B"/>
			<stop  offset="1" style="stop-color:#001437"/>
		</linearGradient>
		
			<path style="clip-path:url(#SVGID_00000013883325904035352430000014546659706234194867_);fill:url(#SVGID_00000051363350202574385190000002456513061283392930_);" d="
			M218.784,419.488l0.303,0.25c-0.149-0.044-0.296-0.091-0.446-0.135L218.784,419.488z"/>
		
			<linearGradient id="SVGID_00000101105026155497127990000013971940899812653495_" gradientUnits="userSpaceOnUse" x1="166.9403" y1="645.5527" x2="208.6763" y2="421.8018">
			<stop  offset="0" style="stop-color:#203E6B"/>
			<stop  offset="1" style="stop-color:#001437"/>
		</linearGradient>
		
			<polygon style="clip-path:url(#SVGID_00000013883325904035352430000014546659706234194867_);fill:url(#SVGID_00000101105026155497127990000013971940899812653495_);" points="
			209.78,416.474 209.722,416.643 209.618,416.164 		"/>
		
			<linearGradient id="SVGID_00000003806540196991000490000016594366826793688219_" gradientUnits="userSpaceOnUse" x1="338.2992" y1="250" x2="338.2992" y2="215.1544">
			<stop  offset="0" style="stop-color:#D9F1F8;stop-opacity:0"/>
			<stop  offset="0.1236" style="stop-color:#E6F6FA;stop-opacity:0.1236"/>
			<stop  offset="0.3328" style="stop-color:#F4FBFD;stop-opacity:0.3328"/>
			<stop  offset="0.586" style="stop-color:#FCFEFF;stop-opacity:0.586"/>
			<stop  offset="1" style="stop-color:#FFFFFF"/>
		</linearGradient>
		
			<path style="opacity:0.54;clip-path:url(#SVGID_00000013883325904035352430000014546659706234194867_);fill:url(#SVGID_00000003806540196991000490000016594366826793688219_);" d="
			M427.275,250c0.06-0.081,0.119-0.162,0.168-0.244c3.074-5.371-21.097-15.193-35.319-6.14c-2.187-8.859-9.738-16.156-18.665-18.04
			c-8.918-1.883-18.774,1.748-24.348,8.961c1.613-4.333-0.71-9.729-4.941-11.57c-4.248-1.824-9.763,0.211-11.807,4.358
			c-1.639-7.153-9.738-13.361-20.776-11.976c-11.055,1.377-17.609,8.631-18.023,16.832c-2.154-1.858-8.319-1.326-9.476,4.974
			c-2.728-4.983-14.543-7.415-25.311-1.106c-3.902,2.289-7.145,6.258-8.919,10.793c-0.405,1.027-0.726,2.086-0.972,3.157H427.275z"
			/>
	</g>
	<g id="XMLID_7_" style="opacity:0.43;">
	</g>
</g>
</svg>
